<svg width="22" height="20" viewBox="0 0 22 20" fill="none" xmlns="http://www.w3.org/2000/svg">
<g clip-path="url(#clip0)">
<path d="M10.9569 20C16.5792 20 21.1369 15.5228 21.1369 10C21.1369 4.47715 16.5792 0 10.9569 0C5.3347 0 0.776978 4.47715 0.776978 10C0.776978 15.5228 5.3347 20 10.9569 20Z" fill="#F2C94C"/>
<path d="M14.1874 10.497C13.0906 16.3239 11.4967 18.7232 10.3142 19.9743C10.5199 19.9829 10.7255 19.9914 10.9312 19.9914C16.5524 19.9914 21.1111 15.5184 21.1111 9.99142C21.1111 5.38988 17.9492 1.5167 13.6475 0.351318C14.2559 1.93658 15.1214 5.52698 14.1874 10.497Z" fill="#D9B445"/>
<path d="M14.9329 4.49017C16.7667 4.49017 18.0178 4.06172 18.8747 3.7361C18.5576 3.3505 18.2148 2.9906 17.8464 2.64784C16.8866 2.96489 15.567 3.25624 13.6304 3.03345C11.6681 2.81065 8.99462 1.53387 7.3151 0.6427C6.78382 0.839787 6.26968 1.08829 5.78125 1.37106C7.3151 2.23653 10.8627 4.10457 13.4762 4.39591C13.9989 4.46447 14.4873 4.49017 14.9329 4.49017Z" fill="#FBFFCC"/>
<path d="M9.60303 14.0531C9.8601 14.173 10.2628 14.4558 10.7256 14.7729C12.268 15.844 14.6159 17.4721 17.3151 17.4721C17.4436 17.4721 17.5808 17.4635 17.7093 17.455C18.3005 16.9323 18.8318 16.3496 19.2945 15.7069C16.2526 16.9408 13.3991 14.9528 11.5139 13.6418C10.9826 13.2733 10.5628 12.982 10.2029 12.8106C8.23199 11.868 6.07261 12.0308 3.97321 13.299C3.14202 13.8046 2.47364 14.3787 2.03662 14.8072C2.26798 15.2185 2.52505 15.6041 2.80783 15.9811C3.69043 15.0471 6.49249 12.5621 9.60303 14.0531Z" fill="#FBFFCC"/>
<ellipse cx="14.5" cy="2.5" rx="11.5" ry="9.5" fill="white" fill-opacity="0.9"/>
<path d="M8.07072 7.99995C8.02872 7.99995 7.99372 7.98595 7.96572 7.95795C7.94238 7.92528 7.93072 7.88795 7.93072 7.84595C7.93072 7.81328 7.94005 7.78295 7.95872 7.75495L9.02972 6.26395C8.91772 6.29195 8.79172 6.30595 8.65172 6.30595C8.32038 6.30128 8.02638 6.22428 7.76972 6.07495C7.51772 5.92562 7.32405 5.72728 7.18872 5.47995C7.05338 5.23262 6.98572 4.96895 6.98572 4.68895C6.98572 4.40895 7.05105 4.14295 7.18172 3.89095C7.31705 3.63428 7.51772 3.42662 7.78372 3.26795C8.04972 3.10928 8.37172 3.02995 8.74972 3.02995C9.12772 3.02995 9.44972 3.10695 9.71572 3.26095C9.98638 3.41495 10.1894 3.61795 10.3247 3.86995C10.4601 4.12195 10.5277 4.39028 10.5277 4.67495C10.5277 4.92695 10.4834 5.15095 10.3947 5.34695C10.3061 5.53828 10.1824 5.74828 10.0237 5.97695L8.67272 7.85995C8.64005 7.90195 8.60739 7.93695 8.57472 7.96495C8.54672 7.98828 8.50472 7.99995 8.44872 7.99995H8.07072ZM8.74972 5.73895C8.94572 5.73895 9.12538 5.69695 9.28872 5.61295C9.45672 5.52428 9.58972 5.40062 9.68772 5.24195C9.78572 5.07862 9.83472 4.89195 9.83472 4.68195C9.83472 4.47195 9.78572 4.28762 9.68772 4.12895C9.58972 3.96562 9.45672 3.84195 9.28872 3.75795C9.12538 3.66928 8.94572 3.62495 8.74972 3.62495C8.55372 3.62495 8.37405 3.66928 8.21072 3.75795C8.04738 3.84195 7.91672 3.96562 7.81872 4.12895C7.72538 4.28762 7.67872 4.47195 7.67872 4.68195C7.67872 4.89195 7.72538 5.07862 7.81872 5.24195C7.91672 5.40062 8.04738 5.52428 8.21072 5.61295C8.37405 5.69695 8.55372 5.73895 8.74972 5.73895Z" fill="black"/>
<path d="M11.4106 6.19395C11.3639 6.19395 11.3243 6.17995 11.2916 6.15195C11.2636 6.11928 11.2496 6.07962 11.2496 6.03295V5.76695C11.2496 5.72028 11.2636 5.68295 11.2916 5.65495C11.3243 5.62228 11.3639 5.60595 11.4106 5.60595H13.5106C13.5573 5.60595 13.5946 5.62228 13.6226 5.65495C13.6553 5.68295 13.6716 5.72028 13.6716 5.76695V6.03295C13.6716 6.07962 13.6553 6.11928 13.6226 6.15195C13.5946 6.17995 13.5573 6.19395 13.5106 6.19395H11.4106Z" fill="black"/>
<path d="M15.8295 7.99995C15.7828 7.99995 15.7431 7.98595 15.7105 7.95795C15.6825 7.92528 15.6685 7.88562 15.6685 7.83895V3.91895L14.5065 4.81495C14.4738 4.84295 14.4388 4.85695 14.4015 4.85695C14.3595 4.85695 14.3198 4.83362 14.2825 4.78695L14.1005 4.55595C14.0771 4.52328 14.0655 4.49062 14.0655 4.45795C14.0655 4.40195 14.0888 4.35762 14.1355 4.32495L15.6615 3.14895C15.7128 3.11628 15.7735 3.09995 15.8435 3.09995H16.2005C16.2471 3.09995 16.2845 3.11628 16.3125 3.14895C16.3451 3.17695 16.3615 3.21428 16.3615 3.26095V7.83895C16.3615 7.88562 16.3451 7.92528 16.3125 7.95795C16.2845 7.98595 16.2471 7.99995 16.2005 7.99995H15.8295Z" fill="black"/>
<path d="M17.3956 7.99995C17.3489 7.99995 17.3093 7.98595 17.2766 7.95795C17.2486 7.92528 17.2346 7.88562 17.2346 7.83895V7.61495C17.2346 7.50762 17.2929 7.40495 17.4096 7.30695L18.8936 5.82295C19.2529 5.52428 19.5003 5.28162 19.6356 5.09495C19.7709 4.90362 19.8386 4.70295 19.8386 4.49295C19.8386 4.22228 19.7616 4.00995 19.6076 3.85595C19.4583 3.70195 19.2389 3.62495 18.9496 3.62495C18.6789 3.62495 18.4619 3.70662 18.2986 3.86995C18.1353 4.02862 18.0349 4.24095 17.9976 4.50695C17.9883 4.56295 17.9649 4.60495 17.9276 4.63295C17.8949 4.65628 17.8576 4.66795 17.8156 4.66795H17.4516C17.4096 4.66795 17.3746 4.65628 17.3466 4.63295C17.3186 4.60495 17.3046 4.57228 17.3046 4.53495C17.3139 4.28295 17.3816 4.04262 17.5076 3.81395C17.6336 3.58062 17.8179 3.39162 18.0606 3.24695C18.3079 3.09762 18.6043 3.02295 18.9496 3.02295C19.4769 3.02295 19.8736 3.16062 20.1396 3.43595C20.4103 3.70662 20.5456 4.05195 20.5456 4.47195C20.5456 4.76595 20.4709 5.03195 20.3216 5.26995C20.1769 5.50328 19.9506 5.75528 19.6426 6.02595L18.2986 7.39095H20.4826C20.5339 7.39095 20.5736 7.40728 20.6016 7.43995C20.6343 7.46795 20.6506 7.50528 20.6506 7.55195V7.83895C20.6506 7.88562 20.6343 7.92528 20.6016 7.95795C20.5689 7.98595 20.5293 7.99995 20.4826 7.99995H17.3956Z" fill="black"/>
</g>
<defs>
<clipPath id="clip0">
<rect width="20.3599" height="20" fill="white" transform="translate(0.776978)"/>
</clipPath>
</defs>
</svg>
