<svg width="21" height="21" viewBox="0 0 21 21" fill="none" xmlns="http://www.w3.org/2000/svg">
<path d="M10.1799 20.2942C15.8022 20.2942 20.3599 15.817 20.3599 10.2942C20.3599 4.77134 15.8022 0.294189 10.1799 0.294189C4.55772 0.294189 0 4.77134 0 10.2942C0 15.817 4.55772 20.2942 10.1799 20.2942Z" fill="#EB5757"/>
<path d="M13.4104 10.7912C12.3136 16.6181 10.7198 19.0174 9.53723 20.2685C9.74289 20.277 9.94854 20.2856 10.1542 20.2856C15.7754 20.2856 20.3341 15.8126 20.3341 10.2856C20.3341 5.68407 17.1722 1.81089 12.8706 0.645508C13.479 2.23077 14.3444 5.82117 13.4104 10.7912Z" fill="#B04141"/>
<path d="M14.1559 4.78436C15.9897 4.78436 17.2408 4.35591 18.0977 4.03029C17.7806 3.64469 17.4379 3.28479 17.0694 2.94203C16.1097 3.25908 14.79 3.55043 12.8535 3.32763C10.8912 3.10484 8.21764 1.82806 6.53812 0.93689C6.00684 1.13398 5.4927 1.38248 5.00427 1.66525C6.53812 2.53072 10.0857 4.39876 12.6992 4.6901C13.2219 4.75865 13.7104 4.78436 14.1559 4.78436Z" fill="#FBFFCC"/>
<path d="M8.82605 14.3473C9.08312 14.4673 9.48587 14.7501 9.94859 15.0671C11.491 16.1383 13.8389 17.7664 16.5381 17.7664C16.6667 17.7664 16.8038 17.7578 16.9323 17.7492C17.5236 17.2265 18.0548 16.6438 18.5176 16.0011C15.4756 17.2351 12.6221 15.2471 10.7369 13.936C10.2057 13.5676 9.78578 13.2762 9.42588 13.1048C7.45502 12.1622 5.29563 12.3251 3.19623 13.5933C2.36504 14.0988 1.69666 14.673 1.25964 15.1014C1.49101 15.5127 1.74808 15.8983 2.03085 16.2754C2.91346 15.3413 5.71551 12.8563 8.82605 14.3473Z" fill="#FBFFCC"/>
</svg>
