<svg width="22" height="20" viewBox="0 0 22 20" fill="none" xmlns="http://www.w3.org/2000/svg">
<g clip-path="url(#clip0)">
<path d="M10.9569 20C16.5792 20 21.1369 15.5228 21.1369 10C21.1369 4.47715 16.5792 0 10.9569 0C5.3347 0 0.776978 4.47715 0.776978 10C0.776978 15.5228 5.3347 20 10.9569 20Z" fill="#F2C94C"/>
<path d="M14.1874 10.497C13.0906 16.3239 11.4967 18.7232 10.3142 19.9743C10.5199 19.9829 10.7255 19.9914 10.9312 19.9914C16.5524 19.9914 21.1111 15.5184 21.1111 9.99142C21.1111 5.38988 17.9492 1.5167 13.6475 0.351318C14.2559 1.93658 15.1214 5.52698 14.1874 10.497Z" fill="#D9B445"/>
<path d="M14.9329 4.49017C16.7667 4.49017 18.0178 4.06172 18.8747 3.7361C18.5576 3.3505 18.2148 2.9906 17.8464 2.64784C16.8866 2.96489 15.567 3.25624 13.6304 3.03345C11.6681 2.81065 8.99462 1.53387 7.3151 0.6427C6.78382 0.839787 6.26968 1.08829 5.78125 1.37106C7.3151 2.23653 10.8627 4.10457 13.4762 4.39591C13.9989 4.46447 14.4873 4.49017 14.9329 4.49017Z" fill="#FBFFCC"/>
<path d="M9.60303 14.0531C9.8601 14.1731 10.2628 14.4559 10.7256 14.7729C12.268 15.8441 14.6159 17.4722 17.3151 17.4722C17.4436 17.4722 17.5808 17.4636 17.7093 17.455C18.3005 16.9323 18.8318 16.3496 19.2945 15.707C16.2526 16.9409 13.3991 14.9529 11.5139 13.6418C10.9826 13.2734 10.5628 12.982 10.2029 12.8106C8.23199 11.8681 6.07261 12.0309 3.97321 13.2991C3.14202 13.8046 2.47364 14.3788 2.03662 14.8072C2.26798 15.2185 2.52505 15.6041 2.80783 15.9812C3.69043 15.0471 6.49249 12.5621 9.60303 14.0531Z" fill="#FBFFCC"/>
<ellipse cx="14.5" cy="2.5" rx="11.5" ry="9.5" fill="white" fill-opacity="0.9"/>
<path d="M5.45248 7.99998C5.40581 7.99998 5.36614 7.98598 5.33348 7.95798C5.30548 7.92531 5.29148 7.88564 5.29148 7.83898V3.91898L4.12948 4.81498C4.09681 4.84298 4.06181 4.85698 4.02448 4.85698C3.98248 4.85698 3.94281 4.83364 3.90548 4.78698L3.72348 4.55598C3.70014 4.52331 3.68848 4.49064 3.68848 4.45798C3.68848 4.40198 3.71181 4.35764 3.75848 4.32498L5.28448 3.14898C5.33581 3.11631 5.39648 3.09998 5.46648 3.09998H5.82348C5.87014 3.09998 5.90748 3.11631 5.93548 3.14898C5.96814 3.17698 5.98448 3.21431 5.98448 3.26098V7.83898C5.98448 7.88564 5.96814 7.92531 5.93548 7.95798C5.90748 7.98598 5.87014 7.99998 5.82348 7.99998H5.45248Z" fill="black"/>
<path d="M8.60062 8.06998C8.23195 8.06998 7.91228 8.01164 7.64162 7.89498C7.37562 7.77364 7.17262 7.61731 7.03262 7.42598C6.89728 7.23464 6.82495 7.03398 6.81562 6.82398C6.81562 6.78198 6.82962 6.74931 6.85762 6.72598C6.88562 6.69798 6.92062 6.68398 6.96262 6.68398H7.30562C7.40362 6.68398 7.46895 6.73531 7.50162 6.83798C7.56228 7.07131 7.69295 7.23698 7.89362 7.33498C8.09428 7.42831 8.32995 7.47498 8.60062 7.47498C8.93195 7.47498 9.19562 7.39798 9.39162 7.24398C9.58762 7.08531 9.68562 6.85898 9.68562 6.56498C9.68562 6.00031 9.34262 5.71798 8.65662 5.71798H7.99162C7.94495 5.71798 7.90528 5.70398 7.87262 5.67598C7.84462 5.64331 7.83062 5.60364 7.83062 5.55698V5.36798C7.83062 5.30264 7.85628 5.23964 7.90762 5.17898L9.26562 3.69498H7.20062C7.15395 3.69498 7.11428 3.68098 7.08162 3.65298C7.05362 3.62031 7.03962 3.58064 7.03962 3.53398V3.26798C7.03962 3.22131 7.05362 3.18164 7.08162 3.14898C7.11428 3.11631 7.15395 3.09998 7.20062 3.09998H9.99362C10.045 3.09998 10.0846 3.11631 10.1126 3.14898C10.1453 3.17698 10.1616 3.21664 10.1616 3.26798V3.51998C10.1616 3.57598 10.136 3.62964 10.0846 3.68098L8.73362 5.18598L8.84562 5.19298C9.32162 5.20698 9.69728 5.33064 9.97262 5.56398C10.248 5.79731 10.3856 6.13798 10.3856 6.58598C10.3856 6.88931 10.3086 7.15298 10.1546 7.37698C10.0006 7.60098 9.78828 7.77364 9.51762 7.89498C9.24695 8.01164 8.94128 8.06998 8.60062 8.06998Z" fill="black"/>
<path d="M11.3627 6.19398C11.3161 6.19398 11.2764 6.17998 11.2437 6.15198C11.2157 6.11931 11.2017 6.07964 11.2017 6.03298V5.76698C11.2017 5.72031 11.2157 5.68298 11.2437 5.65498C11.2764 5.62231 11.3161 5.60598 11.3627 5.60598H13.4627C13.5094 5.60598 13.5467 5.62231 13.5747 5.65498C13.6074 5.68298 13.6237 5.72031 13.6237 5.76698V6.03298C13.6237 6.07964 13.6074 6.11931 13.5747 6.15198C13.5467 6.17998 13.5094 6.19398 13.4627 6.19398H11.3627Z" fill="black"/>
<path d="M15.7816 7.99998C15.7349 7.99998 15.6952 7.98598 15.6626 7.95798C15.6346 7.92531 15.6206 7.88564 15.6206 7.83898V3.91898L14.4586 4.81498C14.4259 4.84298 14.3909 4.85698 14.3536 4.85698C14.3116 4.85698 14.2719 4.83364 14.2346 4.78698L14.0526 4.55598C14.0292 4.52331 14.0176 4.49064 14.0176 4.45798C14.0176 4.40198 14.0409 4.35764 14.0876 4.32498L15.6136 3.14898C15.6649 3.11631 15.7256 3.09998 15.7956 3.09998H16.1526C16.1992 3.09998 16.2366 3.11631 16.2646 3.14898C16.2972 3.17698 16.3136 3.21431 16.3136 3.26098V7.83898C16.3136 7.88564 16.2972 7.92531 16.2646 7.95798C16.2366 7.98598 16.1992 7.99998 16.1526 7.99998H15.7816Z" fill="black"/>
<path d="M18.8877 8.06998C18.5331 8.06998 18.2274 8.00698 17.9707 7.88098C17.7141 7.75498 17.5157 7.58931 17.3757 7.38398C17.2404 7.17864 17.1681 6.95931 17.1587 6.72598V6.71198C17.1587 6.67464 17.1727 6.64431 17.2007 6.62098C17.2287 6.59764 17.2614 6.58598 17.2987 6.58598H17.6767C17.7747 6.58598 17.8377 6.63731 17.8657 6.73998C17.9311 6.98731 18.0571 7.17164 18.2437 7.29298C18.4304 7.41431 18.6451 7.47498 18.8877 7.47498C19.2004 7.47498 19.4594 7.38164 19.6647 7.19498C19.8747 7.00364 19.9797 6.73998 19.9797 6.40398C19.9797 6.10064 19.8747 5.85564 19.6647 5.66898C19.4594 5.48231 19.2004 5.38898 18.8877 5.38898C18.7197 5.38898 18.5844 5.41231 18.4817 5.45898C18.3791 5.50098 18.2764 5.56164 18.1737 5.64098C18.1177 5.68298 18.0687 5.71564 18.0267 5.73898C17.9894 5.75764 17.9474 5.76698 17.9007 5.76698H17.5367C17.4947 5.76698 17.4574 5.75298 17.4247 5.72498C17.3921 5.69231 17.3781 5.65498 17.3827 5.61298L17.6067 3.27498C17.6114 3.21898 17.6277 3.17698 17.6557 3.14898C17.6884 3.11631 17.7304 3.09998 17.7817 3.09998H20.2247C20.2714 3.09998 20.3087 3.11631 20.3367 3.14898C20.3694 3.17698 20.3857 3.21431 20.3857 3.26098V3.53398C20.3857 3.58064 20.3694 3.62031 20.3367 3.65298C20.3087 3.68098 20.2714 3.69498 20.2247 3.69498H18.2087L18.0757 5.07398C18.3277 4.91531 18.6311 4.83598 18.9857 4.83598C19.2937 4.83598 19.5761 4.89898 19.8327 5.02498C20.0941 5.15098 20.2994 5.33298 20.4487 5.57098C20.6027 5.80898 20.6797 6.08898 20.6797 6.41098C20.6797 6.75631 20.6027 7.05498 20.4487 7.30698C20.2994 7.55431 20.0894 7.74331 19.8187 7.87398C19.5481 8.00464 19.2377 8.06998 18.8877 8.06998Z" fill="black"/>
</g>
<defs>
<clipPath id="clip0">
<rect width="20.3599" height="20" fill="white" transform="translate(0.776978)"/>
</clipPath>
</defs>
</svg>
