<svg width="17" height="17" viewBox="0 0 17 17" fill="none" xmlns="http://www.w3.org/2000/svg">
<path d="M8.7654 4.3751C6.49474 4.3751 4.66321 6.20663 4.66321 8.47729C4.66321 10.748 6.49474 12.5795 8.7654 12.5795C11.0361 12.5795 12.8676 10.748 12.8676 8.47729C12.8676 6.20663 11.0361 4.3751 8.7654 4.3751ZM8.7654 11.1443C7.29804 11.1443 6.09844 9.94823 6.09844 8.47729C6.09844 7.00636 7.29447 5.81033 8.7654 5.81033C10.2363 5.81033 11.4324 7.00636 11.4324 8.47729C11.4324 9.94823 10.2328 11.1443 8.7654 11.1443ZM13.9922 4.2073C13.9922 4.73926 13.5638 5.16412 13.0354 5.16412C12.5034 5.16412 12.0786 4.73569 12.0786 4.2073C12.0786 3.6789 12.507 3.25047 13.0354 3.25047C13.5638 3.25047 13.9922 3.6789 13.9922 4.2073ZM16.7092 5.1784C16.6485 3.89669 16.3557 2.76135 15.4167 1.82595C14.4813 0.890549 13.346 0.59779 12.0643 0.533526C10.7433 0.458551 6.78392 0.458551 5.46294 0.533526C4.1848 0.59422 3.04946 0.886979 2.11049 1.82238C1.17152 2.75778 0.882336 3.89312 0.818072 5.17483C0.743097 6.49582 0.743097 10.4552 0.818072 11.7762C0.878766 13.0579 1.17152 14.1932 2.11049 15.1286C3.04946 16.064 4.18123 16.3568 5.46294 16.4211C6.78392 16.496 10.7433 16.496 12.0643 16.4211C13.346 16.3604 14.4813 16.0676 15.4167 15.1286C16.3521 14.1932 16.6449 13.0579 16.7092 11.7762C16.7841 10.4552 16.7841 6.49939 16.7092 5.1784ZM15.0026 13.1936C14.7241 13.8933 14.185 14.4324 13.4817 14.7145C12.4285 15.1322 9.9293 15.0358 8.7654 15.0358C7.60151 15.0358 5.09878 15.1286 4.04913 14.7145C3.34936 14.436 2.81026 13.8969 2.52821 13.1936C2.11049 12.1404 2.20689 9.64119 2.20689 8.47729C2.20689 7.3134 2.11407 4.81067 2.52821 3.76102C2.80669 3.06125 3.34579 2.52215 4.04913 2.2401C5.10235 1.82238 7.60151 1.91878 8.7654 1.91878C9.9293 1.91878 12.432 1.82595 13.4817 2.2401C14.1814 2.51858 14.7205 3.05768 15.0026 3.76102C15.4203 4.81424 15.3239 7.3134 15.3239 8.47729C15.3239 9.64119 15.4203 12.1439 15.0026 13.1936Z" fill="#6C757D"/>
</svg>
