<svg width="17" height="17" viewBox="0 0 17 17" fill="none" xmlns="http://www.w3.org/2000/svg">
<path d="M15.0498 0.477295H2.47832C1.53154 0.477295 0.764038 1.24479 0.764038 2.19158V14.763C0.764038 15.7098 1.53154 16.4773 2.47832 16.4773H15.0498C15.9965 16.4773 16.764 15.7098 16.764 14.763V2.19158C16.764 1.24479 15.9965 0.477295 15.0498 0.477295ZM4.12118 14.1916C3.87 14.1916 3.65486 14.0175 3.59918 13.7763L3.06354 11.4549C3.03529 11.3325 3.05096 11.2041 3.1078 11.092C3.16464 10.98 3.25904 10.8915 3.3745 10.842L5.87443 9.77065C5.98122 9.72489 6.1 9.71508 6.21285 9.74271C6.3257 9.77034 6.4265 9.83391 6.50007 9.92383L7.60711 11.2769C9.35511 10.4568 10.7606 9.03194 11.5636 7.32044L10.2105 6.2134C10.1206 6.13983 10.057 6.03902 10.0294 5.92617C10.0018 5.81332 10.0116 5.69455 10.0573 5.58776L11.1288 3.08783C11.1782 2.97237 11.2667 2.87797 11.3787 2.82113C11.4908 2.76429 11.6192 2.74862 11.7416 2.77687L14.063 3.31251C14.1811 3.33972 14.2864 3.40615 14.3618 3.50094C14.4373 3.59574 14.4783 3.7133 14.4783 3.83444C14.4783 9.55915 9.83743 14.1916 4.12118 14.1916Z" fill="#6C757D"/>
</svg>
