<svg width="17" height="13" viewBox="0 0 17 13" fill="none" xmlns="http://www.w3.org/2000/svg">
<path d="M16.4609 4.4398C16.5828 4.34292 16.764 4.43354 16.764 4.58667V10.9773C16.764 11.8054 16.0922 12.4773 15.264 12.4773H2.26404C1.43591 12.4773 0.764038 11.8054 0.764038 10.9773V4.5898C0.764038 4.43355 0.942163 4.34604 1.06716 4.44292C1.76716 4.98667 2.69529 5.67729 5.88279 7.99292C6.54216 8.47417 7.65466 9.48667 8.76404 9.48042C9.87966 9.48979 11.014 8.45542 11.6484 7.99292C14.8359 5.67729 15.7609 4.98354 16.4609 4.4398ZM8.76404 8.47729C9.48904 8.48979 10.5328 7.5648 11.0578 7.18355C15.2047 4.17417 15.5203 3.91167 16.4765 3.16167C16.6578 3.02104 16.764 2.80229 16.764 2.57104V1.97729C16.764 1.14917 16.0922 0.477295 15.264 0.477295H2.26404C1.43591 0.477295 0.764038 1.14917 0.764038 1.97729V2.57104C0.764038 2.80229 0.870288 3.01792 1.05154 3.16167C2.00779 3.90854 2.32341 4.17417 6.47029 7.18355C6.99529 7.5648 8.03904 8.48979 8.76404 8.47729Z" fill="#6C757D"/>
</svg>
