<svg width="17" height="17" viewBox="0 0 17 17" fill="none" xmlns="http://www.w3.org/2000/svg">
<path d="M8.32387 4.04648C6.05321 4.04648 4.22168 5.87801 4.22168 8.14868C4.22168 10.4193 6.05321 12.2509 8.32387 12.2509C10.5945 12.2509 12.4261 10.4193 12.4261 8.14868C12.4261 5.87801 10.5945 4.04648 8.32387 4.04648ZM8.32387 10.8156C6.85651 10.8156 5.65691 9.61962 5.65691 8.14868C5.65691 6.67775 6.85294 5.48172 8.32387 5.48172C9.79481 5.48172 10.9908 6.67775 10.9908 8.14868C10.9908 9.61962 9.79124 10.8156 8.32387 10.8156ZM13.5507 3.87868C13.5507 4.41065 13.1223 4.83551 12.5939 4.83551C12.0619 4.83551 11.637 4.40708 11.637 3.87868C11.637 3.35029 12.0655 2.92186 12.5939 2.92186C13.1223 2.92186 13.5507 3.35029 13.5507 3.87868ZM16.2676 4.84979C16.2069 3.56807 15.9142 2.43274 14.9752 1.49734C14.0398 0.561936 12.9045 0.269177 11.6228 0.204913C10.3018 0.129938 6.3424 0.129938 5.02141 0.204913C3.74327 0.265607 2.60794 0.558366 1.66897 1.49377C0.729996 2.42917 0.440808 3.5645 0.376544 4.84622C0.301569 6.1672 0.301569 10.1266 0.376544 11.4476C0.437237 12.7293 0.729996 13.8646 1.66897 14.8C2.60794 15.7354 3.7397 16.0282 5.02141 16.0925C6.3424 16.1674 10.3018 16.1674 11.6228 16.0925C12.9045 16.0318 14.0398 15.739 14.9752 14.8C15.9106 13.8646 16.2034 12.7293 16.2676 11.4476C16.3426 10.1266 16.3426 6.17077 16.2676 4.84979ZM14.5611 12.865C14.2826 13.5647 13.7435 14.1038 13.0401 14.3859C11.9869 14.8036 9.48777 14.7072 8.32387 14.7072C7.15998 14.7072 4.65725 14.8 3.6076 14.3859C2.90784 14.1074 2.36873 13.5683 2.08668 12.865C1.66897 11.8117 1.76536 9.31258 1.76536 8.14868C1.76536 6.98479 1.67254 4.48205 2.08668 3.4324C2.36516 2.73264 2.90427 2.19353 3.6076 1.91148C4.66082 1.49377 7.15998 1.59016 8.32387 1.59016C9.48777 1.59016 11.9905 1.49734 13.0401 1.91148C13.7399 2.18996 14.279 2.72907 14.5611 3.4324C14.9788 4.48562 14.8824 6.98479 14.8824 8.14868C14.8824 9.31258 14.9788 11.8153 14.5611 12.865Z" fill="#6C757D"/>
</svg>
