<svg xmlns="http://www.w3.org/2000/svg" fill-rule="evenodd" clip-rule="evenodd" image-rendering="optimizeQuality" shape-rendering="geometricPrecision" text-rendering="geometricPrecision" version="1.0" viewBox="0 0 5000 5000"><defs/><defs><style>.fil1{fill:#073454}.fil0{fill:#1a6d86}</style></defs><g id="Слой_x0020_1"><path d="M2939.41 4396.81c847.08-586.41 1867.55-1969.21 1616.73-3051.55-131.26-563.49-573.57-997.93-1159.94-1080.49-329.16-45.13-853.46 25-1151.23 179.28 911.62 0 1613.95 466.38 1869.29 1358.6 367.54 1298.59-1190.23 2604.93-1174.85 2594.16zM580.53 3744.72l358.84-4.63c-383-556.27-415.69-826.33-405.68-1578.45-80.8 427.84-76.68 826.39 39.38 1228.62 27.27 138.65 34.29 211.93 7.46 354.46zM2689.76 4506.28h-4.84l3.87 5.82.97-5.82zM2710.11 4496.59l-10.66 4.85 10.66-4.85zM2699.45 4501.44l-9.69 4.84 9.69-4.84z" class="fil0"/><path d="M1911.62 4234.95l1.94 1.94s-1.94-.97-1.94-1.94zm1054.32-1135.72l10.66 25.2c2.91 12.59 4.84 19.38 4.84 36.82-18.41-4.85-13.56-.97-15.5-20.35-1.94-7.75 0-31.98 0-41.67zm-92.06-51.36l1.94 3.88c0 1.94.97 2.9.97 2.9l1.94 70.75c0-26.17-4.85-43.61-4.85-77.53zm148.26 20.35c7.76 34.89 17.45 69.77 0 82.37-4.84-19.38-3.87-21.32-5.81-46.51-.97-20.35-8.72-27.14 5.81-35.86zm199.63-65.89h4.84c0 97.87 15.51 76.55 76.56 76.55v10.66c-33.92 7.75-25.2 4.85-65.9 4.85 0 32.94 8.72 72.67 0 92.05-15.5-10.65-15.5-33.91-15.5-71.7v-20.35c-108.53-8.73-76.56-17.45-76.56 61.05 0 18.41-3.87 20.35-4.84 35.85-15.51-10.66-11.63-8.72-10.66-34.89 0-79.46 4.84-63.95-30.04-68.8-13.57-.97-27.13-3.87-46.52-3.87v-4.85c82.37 0 71.71 15.51 71.71-65.89 23.26 17.44 0 24.22 20.35 65.89 49.42-11.63 76.56 11.63 76.56-10.66 0-24.22-4.85-4.84-2.91-28.1.97-12.6 2.91-22.29 2.91-37.79zm-491.31-15.51c0-25.19 5.82-80.43 20.35-101.75 0 59.11-4.84 123.07 10.66 167.65 21.32 56.2 54.27 62.02 81.4 102.72-29.07-1.94-64.92-36.83-79.46-58.15-17.44-25.19-32.95-70.74-32.95-110.47zm276.18-25.19l313-.97c23.26 1.94 19.38.97 30.04 16.47h-168.61c-63.96-.97-114.35-10.66-174.43-10.66v-4.84zm87.21-71.71l163.77-4.85c17.45 0 19.38 2.91 35.86 4.85-34.89 24.22-151.17 4.84-199.63 4.84v-4.84zm-15.5-82.37c-7.75 0-7.75-5.82-9.69-9.69 41.67 0 75.58-11.63 108.53-14.54 22.29-.97 92.06 6.79 116.29 9.69-16.48 21.32-44.58 3.88-104.66 12.6-22.29 3.88-35.85 2.91-57.17 0-30.04-3.88-23.26 1.94-53.3 1.94zm-583.37 10.66c35.86-18.41 128.89-17.45 203.5-31.98 17.45-3.88 49.42-12.6 67.84-13.57-9.69 35.86-45.55 43.61-68.81 160.86-14.53 69.78-17.44 8.73-183.14-93.99-11.63-6.79-15.51-6.79-19.39-21.32zm-562.04-127.92zm-291.68-665.73l103.68 249.04c13.57 30.04 27.14 57.18 38.76 84.31l131.8 287.81c7.75 17.44 15.5 24.22 17.44 44.57l-165.71-310.09-69.77-171.52c-11.63-34.89-56.2-153.11-56.2-184.12zm-5.82-14.54c5.82 5.82 5.82-8.72 5.82 14.54-5.82-4.85-5.82 9.69-5.82-14.54zm0 0c-4.84-6.78-4.84 10.66-4.84-15.5 4.84 6.78 3.87-5.82 4.84 15.5zm-9.69-26.16l.97 1.94s-1.94-.97-.97-1.94zm-26.16-92.06l1.93 1.94s-1.93-.97-1.93-1.94zm-4.85-20.35c4.85 6.78 4.85-10.66 4.85 15.51-4.85-5.82-2.91 5.81-4.85-15.51zm-81.4 10.66c3.88-11.63-.97-6.78 9.69-15.5-3.87 14.53.97 7.75-9.69 15.5zm76.56-26.16c4.84 5.81 4.84-8.73 4.84 15.5-4.84-5.81-4.84 8.72-4.84-15.5zm424.44 5.81c35.85 0 42.64 24.23 46.51 61.05 7.75 77.52-.97 112.41-10.66 194.78-2.9 30.04-3.87 70.74-10.66 96.9-20.35-10.66-19.38-14.53-34.88-26.16 2.9 13.56 24.22 50.39 31.98 64.92 63.95 106.6 19.38 44.58 37.79 136.64 4.84 26.16 16.47 62.02 16.47 85.28-12.6-8.73-30.04-22.29-38.76-36.83-3.88-5.81-5.81-11.63-8.72-17.44-32.95-62.99-95.94-61.05-114.35-94.97-54.26-98.84-38.76-149.23-64.92-252.92-17.45-66.86-38.77-136.63-38.77-206.4 0-60.09 21.32-100.79 25.2-154.08 32.95 22.29 71.71 185.08 79.46 222.88 13.57 59.11 33.92 8.72 32.95 120.16 0 32.63 14.43 92.51 35.85 118.22-25.7-88.7 72.3-227.42 15.51-312.03zm-491.31 4.85zm5.82-240.33c7.75 13.57 27.13 94.97 31.01 111.44 6.78 23.26 29.07 96.91 30.04 118.23l-10.66-25.2c-12.6-51.36-50.39-154.08-50.39-204.47zm0 0c-5.82-6.78-6.79 21.32-4.85-9.69.97-11.63.97-4.84 4.85-10.66v20.35zm-10.66-31.01c3.87-13.56 16.47.97 3.87.97 0 0-11.63 25.2-3.87-.97zM1267.2 1253.2c-9.69 13.57-43.6 31.01-60.08 46.51-287.64 267.51-52.25 301.24 172.49 362.43-40.76 0-84.25 4.84-127.91 4.84-169.58.97-328.51-125-239.36-254.86 28.11-40.7 13.57-34.88 44.58-57.17 42.64-29.07 155.05-100.78 210.28-101.75zm0 0l9.69-6.78-9.69 6.78zm383.75-189.93l-2.91 10.66 2.91-10.66zm0 0c1.93-25.2 22.28-71.71 30.04-93.03 11.62-31.01 21.32-59.11 21.32-101.75-38.77-8.72-12.6-21.32-154.08-44.58-22.29-3.87-36.83-9.69-56.21-11.63v-9.69c31.01-7.75 59.11-32.94 143.42-25.19l158.92 14.53c-9.69 41.67-84.3 191.87-119.19 239.36l-24.22 31.98zm-137.61 818.84c-11.63 41.67-195.75 264.55-252.92 320.75-17.44 18.42-24.23 26.17-40.7 45.55-41.67 50.39-90.12 86.24-125.01 120.16-60.08 60.08-66.86 49.42-77.52 92.06-10.66 45.55-20.35 95.94-21.32 142.45-.97 33.92 5.82 46.51 5.82 82.37 51.35 0 44.57.97 124.03-39.73 29.07-14.54 36.83-12.6 65.9-21.32l64.92-21.32c54.27-17.44 163.77-40.7 221.92-11.63 23.25 10.66 34.88 25.2 34.88 58.14-11.63-3.87-4.84-2.9-12.6-8.72-10.66-7.75 4.85-1.94-15.5-9.69-76.56-28.1-256.8 19.38-305.25 23.26 7.75 31.98 143.42 285.87 176.37 345.95 11.62 21.32 19.38 24.22 20.35 38.76v2.91c-.97 14.53-3.88 11.63-14.54 8.72-11.63-2.91-24.23-25.2-30.04-31.98l-294.59-313 59.11 159.89c7.75 18.41 18.41 31.98 27.14 49.42 11.62 22.29 15.5 22.29 31.97 39.73 13.57 13.57 22.29 27.14 32.95 43.61 17.44 28.1 61.05 52.33 67.83 80.43-32.94.97-88.18 18.41-121.13 27.13-36.82 8.73-99.81 16.48-108.53 39.73 32.95 0 44.58 3.88 71.71 4.85 42.64 1.94 181.21-15.5 224.82-15.5l12.6 19.38c.96.97 1.93 1.93 1.93 2.9.97 0 1.94 1.94 2.91 1.94l136.64 149.23c17.44 28.11-2.91 35.86 25.19 57.18 22.29 15.5 8.72-10.66 24.23 57.17 9.69 41.67 22.29 97.88 22.29 147.3-98.85 0-176.37 25.19-237.42 85.27l-51.36 56.21c-31.98 32.94-57.17 62.99-95.94 88.18-16.47 10.66-8.72 0-16.47 14.54-15.5 29.07-2.91 91.09 19.38 122.1 11.63 16.47 17.44 12.59 23.26 32.94-27.13 0-7.75 0-15.51 4.85l-25.19-31.01c-18.41 4.84-28.1 12.6-41.67 20.35l-5.81-40.7-8.73 35.85-7.75-13.56c-9.69-18.41-16.47-37.8-11.63-61.05 8.73-39.73 36.83-23.26 44.58-53.3l-122.1 77.52c-50.39 30.04-53.3.97-154.08 45.55-154.08 67.83-45.54 175.4 37.79 207.37 18.42 7.76 32.95 8.73 50.4 15.51 15.5 6.78 31.97 15.5 44.57 23.26 34.89 19.38 47.48 30.04 66.87 65.89l-148.27 10.66c-52.33.97-101.75.97-153.11 4.85l-302.34 20.35c15.5 9.69 175.4 24.22 219 31.01 72.68 12.59 142.45 25.19 219.01 37.79l166.67 22.29c22.29 1.93 42.64-.97 63.96 1.93 78.49 11.63 160.86-5.81 242.26-5.81-6.78-31.01.97-1.94 22.29-38.76 31.98-57.18-33.92-119.19-56.2-153.11-26.17-39.73-28.11-51.36-66.87-81.4-25.19-20.35-55.23-57.17-89.15-64.93 19.38-28.1 66.86-33.91 96.9-57.17 12.6-10.66 16.48-12.6 31.01-19.38 48.46-21.32 95.94-45.55 143.42-65.9 93.03-41.67 131.79-65.89 228.7-78.49 40.7-5.81 57.17 1.94 88.18-19.38-22.29-94.97-103.69-252.92-146.33-456.42l-37.79-167.65c4.85 5.82 2.91.97 8.72 11.63 32.95 60.08 251.95 716.13 263.58 759.73 11.63 42.64 27.14 88.19 40.7 133.73l34.89 138.58c-17.44-20.35-8.72-31.98-25.2-51.36.97 17.44 39.73 157.95 48.46 222.88 3.87 25.19-27.14 135.66-17.45 243.23-23.25 0-41.67 7.75-63.95 12.6l-221.92 24.22c-95.93 11.63-194.77 21.32-291.68 35.86-93.03 12.59-188.96 27.13-281.99 39.73l-248.08 38.76c-26.16 3.88-17.44-2.91-28.1 12.6 82.37 0 319.79 17.44 381.81 8.72l334.32-14.54c24.22 0 23.25-3.87 45.54-4.84 64.93-2.91 125.98-7.76 185.09-14.54 43.61-4.84 166.68-27.13 194.78-6.78 78.49 59.11 233.54 11.63 326.57 11.63 9.69-20.35 16.47-97.88 4.84-123.07-20.35-43.61-34.88-38.76-53.3-100.78-7.75-27.14-18.41-117.26-36.82-131.79-8.72-5.82-3.88 0-13.57-6.79-22.28-17.44-22.28-61.05-29.07-88.18-11.63-45.54-49.42-215.13-61.05-241.29l-14.53-62.02c-39.73-164.74-28.11-247.11-36.83-407.97-2.9-50.39-13.56-90.12-15.5-138.57-2.91-53.3 11.63-74.62-2.91-139.54-26.16-109.51 4.85-89.16-10.66-127.92-10.66-26.16-21.32-15.5-16.47-47.48 2.9-21.32 0-35.86 10.66-56.21 22.28-43.6 7.75-72.67 1.93-127.91-3.87-26.16 6.79-35.86 0-65.9-2.9-14.53-5.81-14.53-7.75-29.07-1.94-11.63-1.94-26.16-3.87-36.82-3.88-31.98 8.72-29.07 8.72-63.96 27.13 1.94 17.44 14.54 48.45 22.29 25.2 5.81 32.95-1.94 57.17 4.85 54.27 13.56 56.21 3.87 119.2 29.07 33.91 13.56 84.3 3.87 116.28 27.13 18.41 12.6 18.41 25.2 44.58 10.66 19.38-10.66 23.25-26.16 28.1-48.45 48.45 23.25 46.51 1.94 140.51 63.95l119.19 91.09c39.74 32.95 61.05 78.5 94.97 115.32 35.86 39.73 65.9 66.87 116.29 93.03 35.85 18.41 68.8 34.89 109.5 43.61 17.44 3.87 30.04 5.81 47.48 8.72 164.74 32.95 342.07-65.9 416.69-206.41 40.7-78.49 46.52-159.89 13.57-238.38-24.23-56.21-74.62-104.66-129.85-131.79-63.96-30.04-141.49-50.39-212.23-44.58l-93.99 6.78c-56.21 8.72-100.78 29.07-154.08 47.49-102.72 34.88-293.62 76.55-406.03 63.95-16.47-1.93-28.1-8.72-46.52-9.69 1.94-60.08 15.51-50.39-20.35-118.22 45.55-3.88 320.76-91.09 373.09-107.56 19.38-6.79 39.73-13.57 61.05-20.35 16.47-5.82 45.54-11.63 52.33-30.04-119.2 0-326.57 38.76-447.7 59.11-180.25 30.04-135.67 36.82-151.17-28.11l-32.95-192.84c-16.48-51.35-7.75 18.42-7.75-78.49 0-190.9-62.99-225.79-89.16-305.25-16.47-50.39-27.13-104.65-36.82-157.95-21.32-114.35.97-56.21 7.75-94.97 1.94-12.6-7.75-39.73-9.69-57.17-6.78-70.74-11.63-158.93-28.1-226.76-8.72-33.91-20.35-70.74-35.86-97.87l-51.35-75.59c-41.67-52.33-113.38-69.77-174.43-86.24l-109.5-24.23 73.64-121.13c9.69-18.41 8.72-33.92 16.48-49.42 13.56-27.13 19.38 0 22.28-44.58 2.91-41.67 7.76-24.22 14.54-51.36 6.78-25.19 9.69-103.68 16.47-117.25 12.6 9.69 9.69 13.57 16.48 30.04 2.9 8.72-.97-6.78 3.87 10.66 19.38-14.54 16.48-29.07 16.48-47.48 1.94-58.15 13.56-43.61-14.54-107.57-18.41-38.76-8.72-44.57-41.67-72.68-27.13-23.25 15.51-9.69-19.38-29.07-19.38-11.63-48.45-35.85-69.77-37.79-31.01-1.94-22.29 9.69-62.02-5.81-63.96-27.14-24.22-32.95-104.66-15.51-36.82 8.72-73.64 24.23-107.56 40.7-48.45 25.2-43.61 18.41-71.71 71.71-4.84 7.75-8.72 13.57-13.57 23.26-9.69 21.32-2.9 10.66-4.84 23.25-1.94 20.35-13.57 33.92-18.41 55.24 51.36-12.6 149.23-95.94 286.84-107.56-9.7 11.62-34.89 22.28-50.4 31.97l-155.04 90.13c-17.45 10.65-33.92 18.41-53.3 29.07-55.24 31.01-20.35 30.04-42.64 120.16-5.81 21.32-9.69 25.19-23.25 38.76-7.76 7.75-4.85 0-8.73 11.63h26.17c-12.6 19.38-8.72 22.29-.97 36.82 5.81 12.6 2.91 36.83 10.66 44.58 6.78 7.75 4.84.97 13.56-2.91.97-.97.97-1.94 1.94-.97-3.87 15.51-6.78 31.01-11.63 48.45-9.69 33.92-41.66 36.83-60.08 62.99-15.5 20.35-3.87 18.41-31.97 29.07-64.93 27.14-100.79 61.05-145.36 105.63-51.36 51.36-112.41 94.97-151.17 156.02-68.8 111.44-56.21 246.13-3.88 349.82 33.92 67.83 33.92 133.73 41.67 208.35 7.75 73.64 16.47 150.2 24.23 221.91 9.69 86.24 21.32 142.45 21.32 229.66l46.51-70.74c16.47-26.16 31.01-47.48 45.54-72.68 20.35-34.88 179.28-144.39 223.85-186.05 13.57-11.63 20.35-16.48 32.95-27.14 36.83-32.95 86.25-95.93 122.1-119.19z" class="fil1"/><path d="M1886.42 4178.75c0-24.23 0-9.69-4.84-15.51 0 24.23 0 10.66 4.84 15.51zM1118.94 3830.86c12.6-2.91 6.78 2.91 10.66-9.69l-10.66 9.69zM1774.01 3882.22l2.91 10.66-2.91-10.66zM1881.58 4163.24l-2.91-10.66 2.91 10.66z" class="fil1"/><path fill="#33485c" d="M3068.66 2086.58v-4.85c58.14 0 174.43-102.72 233.54-75.58 19.38 8.72 16.47 9.69 16.47 29.07-31.98-37.79-62.02-25.2-119.19 3.88-53.3 27.13-79.46 47.48-130.82 47.48zm-57.17-132.76c0 59.11 6.78 88.18 45.54 128.88 68.8 70.74 176.37 65.9 240.32-2.9 74.62-79.47 35.86-198.66-3.87-218.04-11.63-6.78-214.16-30.04-258.74 23.26-11.63 13.56-23.25 49.42-23.25 68.8z"/><path fill="#32495d" d="M3048.31 1866.61c12.6-3.88 40.7-25.2 86.24-25.2 53.3 0 98.85 9.69 148.27 9.69-44.58-66.86-187.03-57.17-234.51 15.51z"/><path fill="#063353" d="M1774.01 3882.22l-12.59-38.76c-5.82-13.57-3.88-7.75-7.76-12.6.97 19.38 7.76 36.82 20.35 51.36z"/></g></svg>