<?xml version="1.0" encoding="UTF-8"?>
<!DOCTYPE svg PUBLIC "-//W3C//DTD SVG 1.0//EN" "http://www.w3.org/TR/2001/REC-SVG-20010904/DTD/svg10.dtd">
<!-- Creator: CorelDRAW 2020 (64-Bit) -->
<svg xmlns="http://www.w3.org/2000/svg" xml:space="preserve" width="31.75mm" height="15.875mm" version="1.0" style="shape-rendering:geometricPrecision; text-rendering:geometricPrecision; image-rendering:optimizeQuality; fill-rule:evenodd; clip-rule:evenodd"
viewBox="0 0 3175 1587.5"
 xmlns:xlink="http://www.w3.org/1999/xlink"
 xmlns:xodm="http://www.corel.com/coreldraw/odm/2003">
 <defs>
  <style type="text/css">
   <![CDATA[
    .fil8 {fill:#063353}
    .fil1 {fill:#073454}
    .fil0 {fill:#1A6D86}
    .fil3 {fill:#1B718B}
    .fil5 {fill:#1B728C}
    .fil6 {fill:#1B728D}
    .fil7 {fill:#1B748E}
    .fil9 {fill:#1C7590}
    .fil11 {fill:#243A55}
    .fil4 {fill:#32495D}
    .fil2 {fill:#33485C}
    .fil10 {fill:#4691CD}
   ]]>
  </style>
 </defs>
 <g id="Слой_x0020_1_0">
  <metadata id="CorelCorpID_0Corel-Layer"/>
  <g id="_1860387868816">
   <g id="_2272448456672">
    <g>
     <path class="fil0" d="M2702.44 1009.18l0.59 1.98c-0.2,3.75 -2.96,4.93 -6.52,9.67l-7.11 8.5c-3.75,3.75 -0.59,2.56 -5.73,6.91 -3.95,3.36 -0.79,0.99 -3.55,4.74 -2.77,3.95 -1.98,1.18 -4.54,3.75 -2.97,3.16 -1.78,4.74 -6.92,8.69 -5.92,4.94 -4.74,7.51 -15.4,16l-35.55 36.34c-7.11,5.53 -1.78,-0.79 -8.3,7.31 -4.14,5.13 -2.56,0 -8.69,7.3 -3.16,3.76 -1.77,1.19 -4.74,3.56 -4.14,2.96 0.4,1.58 -5.92,5.53 -0.2,0.2 -0.59,0.2 -0.79,0.39l-11.85 6.52 -2.17 0.99c2.76,3.36 -0.79,4.94 -1.98,5.33 0,0 2.17,-4.54 7.11,-2.17 1.38,-0.59 4.74,-3.36 6.72,-4.74 17.97,-12.44 46.41,-35.16 63.39,-50.17 2.57,-2.37 3.56,-3.95 6.52,-6.12l20.15 -18.56c4.14,-3.95 9.67,-8.89 12.83,-13.04 -1.18,-1.18 -1.38,0.99 -0.39,-1.78 0.2,-0.79 2.17,-4.34 4.54,-2.56l22.12 -22.72c2.57,-2.56 2.77,-3.75 5.14,-6.32l26.66 -30.61c20.34,-24.29 50.36,-67.35 66.36,-94.21l29.23 -51.15c1.38,-2.76 2.57,-5.13 3.75,-7.7 37.33,-74.66 77.62,-186.24 51.94,-297.04 -8.09,-34.76 -22.31,-66.95 -40.68,-95.79 -2.96,-4.74 -6.12,-9.08 -9.48,-13.43 -16.2,-21.92 -34.76,-41.28 -56.88,-57.87l-27.45 -18.36c-2.77,-1.78 -4.35,-2.57 -7.51,-4.15 -31.6,-15.8 -53.72,-24.89 -94.4,-30.61 -73.47,-10.08 -148.52,5.13 -218.24,28.04l-16.39 8.49c12.04,0 138.84,20.35 142,21.53 21.92,8.89 40.49,18.76 60.43,31.4 25.48,16.59 49.18,35.36 71.5,55.7 3.36,3.16 6.12,6.32 9.28,9.48 43.85,43.84 80.58,98.75 97.76,158.79 5.93,20.93 8.1,38.51 10.87,62.21 2.17,18.96 -0.79,53.13 -3.56,69.13 -3.55,21.92 -7.9,40.09 -13.23,59.84 -4.74,17.38 -25.28,72.48 -36.54,90.65l-19.75 35.55c-11.06,18.17 -27.85,43.45 -40.88,60.24 -1.58,1.78 -2.77,2.57 -3.75,4.54z"/>
     <path class="fil0" d="M2093.54 1040.19c3.16,0.79 0.99,0.39 3.16,2.17l3.16 2.17c11.26,0 20.94,-0.98 33.38,-0.98 6.72,0 9.28,1.18 16.59,0.98 5.93,0 11.85,0 17.78,0 -2.97,-4.14 -5.73,-7.9 -8.69,-12.24 -2.97,-4.35 -5.34,-8.49 -8.1,-12.64 -10.47,-16 -25.87,-43.65 -33.38,-60.44 -19.75,-44.43 -34.76,-90.06 -39.5,-140.02 -0.39,-4.55 -0.99,-16.99 -2.17,-20.15 -2.77,-0.2 -0.79,2.17 -2.17,-2.57 -0.79,-3.35 0.39,-32.78 -2.97,-32.39 -4.14,17.98 0,56.09 0.99,74.07 2.17,38.31 14.02,98.35 21.33,135.09 2.37,12.04 6.32,22.91 5.14,31.99 -0.99,6.12 -3.16,32.39 -4.55,34.96z"/>
     <path class="fil0" d="M2518.96 1178.04l-0.99 0 0.79 1.19 0.2 -1.19z"/>
     <path class="fil0" d="M2523.11 1176.07l-2.18 0.99 2.18 -0.99z"/>
     <path class="fil0" d="M2520.93 1177.06l-1.97 0.98 1.97 -0.98z"/>
    </g>
    <g>
     <path class="fil1" d="M2360.37 1122.74l0.39 0.4c0,0 -0.39,-0.2 -0.39,-0.4zm214.88 -231.47l2.17 5.14c0.59,2.57 0.99,3.95 0.99,7.5 -3.76,-0.98 -2.77,-0.19 -3.16,-4.14 -0.4,-1.58 0,-6.52 0,-8.5zm-18.77 -10.46c0.2,0.39 0.2,0.39 0.4,0.79 0,0.39 0.2,0.59 0.2,0.59l0.39 14.42c0,-5.34 -0.99,-8.89 -0.99,-15.8zm30.22 4.14c1.58,7.11 3.56,14.22 0,16.79 -0.99,-3.95 -0.79,-4.34 -1.18,-9.48 -0.2,-4.15 -1.78,-5.53 1.18,-7.31zm40.69 -13.43l0.98 0c0,19.95 3.16,15.61 15.61,15.61l0 2.17c-6.92,1.58 -5.14,0.99 -13.43,0.99 0,6.71 1.77,14.81 0,18.76 -3.16,-2.17 -3.16,-6.91 -3.16,-14.62l0 -4.14c-22.12,-1.78 -15.61,-3.56 -15.61,12.44 0,3.75 -0.79,4.15 -0.98,7.31 -3.16,-2.18 -2.37,-1.78 -2.18,-7.11 0,-16.2 0.99,-13.04 -6.12,-14.03 -2.76,-0.19 -5.53,-0.79 -9.48,-0.79l0 -0.98c16.79,0 14.62,3.16 14.62,-13.43 4.74,3.55 0,4.93 4.14,13.43 10.08,-2.37 15.61,2.37 15.61,-2.18 0,-4.93 -0.99,-0.98 -0.6,-5.72 0.2,-2.57 0.6,-4.55 0.6,-7.71zm-100.14 -3.16c0,-5.13 1.19,-16.39 4.15,-20.73 0,12.04 -0.99,25.08 2.17,34.16 4.35,11.46 11.06,12.64 16.59,20.94 -5.92,-0.4 -13.23,-7.51 -16.19,-11.85 -3.56,-5.14 -6.72,-14.42 -6.72,-22.52zm56.29 -5.13l63.79 -0.2c4.74,0.4 3.95,0.2 6.13,3.36l-34.37 0c-13.03,-0.2 -23.3,-2.17 -35.55,-2.17l0 -0.99zm17.78 -14.62l33.37 -0.98c3.56,0 3.95,0.59 7.31,0.98 -7.11,4.94 -30.81,0.99 -40.68,0.99l0 -0.99zm-3.16 -16.78c-1.58,0 -1.58,-1.19 -1.98,-1.98 8.49,0 15.41,-2.37 22.12,-2.96 4.54,-0.2 18.76,1.38 23.7,1.97 -3.36,4.35 -9.08,0.79 -21.33,2.57 -4.54,0.79 -7.31,0.59 -11.65,0 -6.12,-0.79 -4.74,0.4 -10.86,0.4zm-118.9 2.17c7.31,-3.75 26.27,-3.56 41.48,-6.52 3.55,-0.79 10.07,-2.57 13.82,-2.76 -1.97,7.3 -9.28,8.88 -14.02,32.78 -2.96,14.22 -3.56,1.78 -37.33,-19.16 -2.37,-1.38 -3.16,-1.38 -3.95,-4.34zm-114.55 -26.07l0 0zm-59.45 -135.68l21.14 50.75c2.76,6.13 5.53,11.66 7.9,17.19l26.86 58.65c1.58,3.56 3.16,4.94 3.55,9.09l-33.77 -63.2 -14.22 -34.96c-2.37,-7.11 -11.46,-31.2 -11.46,-37.52zm-1.18 -2.97c1.18,1.19 1.18,-1.77 1.18,2.97 -1.18,-0.99 -1.18,1.97 -1.18,-2.97zm0 0c-0.99,-1.38 -0.99,2.18 -0.99,-3.16 0.99,1.39 0.79,-1.18 0.99,3.16zm-1.98 -5.33l0.2 0.4c0,0 -0.39,-0.2 -0.2,-0.4zm-5.33 -18.76l0.4 0.39c0,0 -0.4,-0.19 -0.4,-0.39zm-0.99 -4.15c0.99,1.38 0.99,-2.17 0.99,3.16 -0.99,-1.18 -0.59,1.19 -0.99,-3.16zm-16.59 2.17c0.79,-2.37 -0.19,-1.38 1.98,-3.16 -0.79,2.97 0.2,1.58 -1.98,3.16zm15.61 -5.33c0.98,1.19 0.98,-1.78 0.98,3.16 -0.98,-1.18 -0.98,1.78 -0.98,-3.16zm86.5 1.19c7.31,0 8.69,4.93 9.48,12.44 1.58,15.8 -0.2,22.91 -2.17,39.7 -0.59,6.12 -0.79,14.41 -2.17,19.75 -4.15,-2.18 -3.95,-2.97 -7.11,-5.34 0.59,2.77 4.93,10.27 6.51,13.24 13.04,21.72 3.95,9.08 7.71,27.84 0.98,5.34 3.35,12.64 3.35,17.38 -2.56,-1.77 -6.12,-4.54 -7.9,-7.5 -0.79,-1.19 -1.18,-2.37 -1.77,-3.56 -6.72,-12.83 -19.56,-12.44 -23.31,-19.35 -11.06,-20.15 -7.9,-30.42 -13.23,-51.55 -3.56,-13.63 -7.9,-27.85 -7.9,-42.07 0,-12.24 4.34,-20.54 5.13,-31.4 6.72,4.54 14.62,37.72 16.2,45.43 2.76,12.04 6.91,1.77 6.71,24.49 0,5.92 2.77,16.59 5.53,21.52 1.19,2.18 0.79,1.39 1.78,2.57 -0.39,-4.34 -0.99,-2.37 -0.99,-6.32 0,-14.22 13.83,-42.86 4.15,-57.27zm-100.13 0.98l0 0zm1.18 -48.98c1.58,2.77 5.53,19.36 6.32,22.72 1.39,4.74 5.93,19.75 6.13,24.09l-2.18 -5.13c-2.56,-10.47 -10.27,-31.41 -10.27,-41.68zm0 0c-1.18,-1.38 -1.38,4.35 -0.98,-1.97 0.19,-2.37 0.19,-0.99 0.98,-2.17l0 4.14zm-2.17 -6.32c0.79,-2.76 3.36,0.2 0.79,0.2 0,0 -2.37,5.14 -0.79,-0.2zm-51.15 -69.71c-1.98,2.76 -8.89,6.32 -12.25,9.48 -19.75,18.36 -46.01,53.52 -2.56,63.59l37.72 10.27c-5.14,0 -7.11,0.99 -12.44,0.99 -4.55,0.2 -9.09,0 -13.63,0 -34.56,0.2 -66.95,-25.48 -48.78,-51.94 5.72,-8.3 2.76,-7.11 9.08,-11.66 8.69,-5.92 31.6,-20.54 42.86,-20.73zm0 0l1.97 -1.39 -1.97 1.39zm78.21 -38.71l-0.59 2.17 0.59 -2.17zm0 0c0.39,-5.14 4.54,-14.62 6.12,-18.96 2.37,-6.32 4.35,-12.05 4.35,-20.74 -7.9,-1.78 -2.57,-4.35 -31.41,-9.09 -4.54,-0.79 -7.5,-1.97 -11.45,-2.37l0 -1.97c6.32,-1.58 12.05,-6.72 29.23,-5.14l32.39 2.97c-1.98,8.49 -17.18,39.1 -24.29,48.78l-4.94 6.52zm-28.05 166.88c-2.37,8.5 -39.89,53.92 -51.54,65.38 -3.56,3.75 -4.94,5.33 -8.3,9.28 -8.49,10.27 -18.37,17.58 -25.48,24.49 -12.24,12.24 -13.62,10.07 -15.8,18.76 -2.17,9.28 -4.14,19.55 -4.34,29.03 -0.2,6.92 1.18,9.48 1.18,16.79 10.47,0 9.09,0.2 25.28,-8.1 5.93,-2.96 7.51,-2.56 13.43,-4.34l13.24 -4.35c11.06,-3.55 33.37,-8.29 45.22,-2.37 4.74,2.18 7.11,5.14 7.11,11.85 -2.37,-0.79 -0.98,-0.59 -2.56,-1.77 -2.18,-1.58 0.98,-0.4 -3.16,-1.98 -15.61,-5.73 -52.34,3.95 -62.22,4.74 1.58,6.52 29.23,58.26 35.95,70.51 2.37,4.34 3.95,4.94 4.15,7.9 0,0.2 0,0.59 0,0.59 -0.2,2.96 -0.79,2.37 -2.97,1.78 -2.37,-0.59 -4.93,-5.14 -6.12,-6.52l-60.04 -63.79 12.05 32.59c1.58,3.75 3.75,6.51 5.53,10.07 2.37,4.54 3.16,4.54 6.52,8.1 2.76,2.76 4.54,5.53 6.71,8.88 3.56,5.73 12.44,10.67 13.83,16.4 -6.72,0.19 -17.98,3.75 -24.69,5.53 -7.51,1.77 -20.34,3.35 -22.12,8.09 6.71,0 9.08,0.79 14.61,0.99 8.69,0.4 36.94,-3.16 45.82,-3.16l2.57 3.95c0.2,0.2 0.4,0.4 0.4,0.59 0.19,0 0.39,0.4 0.59,0.4l27.85 30.41c3.55,5.73 -0.6,7.31 5.13,11.66 4.54,3.16 1.78,-2.18 4.94,11.65 1.97,8.49 4.54,19.95 4.54,30.02 -20.14,0 -35.94,5.13 -48.39,17.38l-10.46 11.45c-6.52,6.72 -11.66,12.84 -19.56,17.98 -3.35,2.17 -1.77,0 -3.35,2.96 -3.16,5.92 -0.6,18.56 3.95,24.88 2.37,3.36 3.55,2.57 4.74,6.72 -5.53,0 -1.58,0 -3.16,0.99l-5.14 -6.32c-3.75,0.98 -5.73,2.56 -8.49,4.14l-1.19 -8.29 -1.77 7.31 -1.58 -2.77c-1.98,-3.75 -3.36,-7.7 -2.37,-12.44 1.77,-8.1 7.5,-4.74 9.08,-10.86l-24.88 15.8c-10.27,6.12 -10.87,0.19 -31.41,9.28 -31.4,13.82 -9.28,35.75 7.71,42.26 3.75,1.58 6.71,1.78 10.27,3.16 3.16,1.39 6.51,3.16 9.08,4.74 7.11,3.95 9.68,6.13 13.63,13.43l-30.22 2.18c-10.66,0.19 -20.74,0.19 -31.2,0.98l-61.62 4.15c3.16,1.98 35.74,4.94 44.63,6.32 14.81,2.57 29.03,5.14 44.64,7.7l33.97 4.55c4.54,0.39 8.69,-0.2 13.03,0.39 16,2.37 32.79,-1.18 49.38,-1.18 -1.39,-6.32 0.19,-0.4 4.54,-7.9 6.52,-11.66 -6.91,-24.3 -11.46,-31.21 -5.33,-8.1 -5.72,-10.47 -13.62,-16.59 -5.14,-4.15 -11.26,-11.65 -18.17,-13.23 3.95,-5.73 13.62,-6.91 19.75,-11.65 2.56,-2.18 3.35,-2.57 6.32,-3.95 9.87,-4.35 19.55,-9.29 29.23,-13.43 18.96,-8.5 26.86,-13.43 46.61,-16 8.29,-1.19 11.65,0.39 17.97,-3.95 -4.54,-19.36 -21.13,-51.55 -29.82,-93.02l-7.71 -34.17c0.99,1.18 0.6,0.2 1.78,2.37 6.72,12.24 51.35,145.95 53.72,154.84 2.37,8.69 5.53,17.97 8.3,27.25l7.11 28.25c-3.56,-4.15 -1.78,-6.52 -5.14,-10.47 0.2,3.55 8.1,32.19 9.88,45.42 0.79,5.14 -5.53,27.65 -3.56,49.58 -4.74,0 -8.49,1.58 -13.03,2.56l-45.23 4.94c-19.55,2.37 -39.7,4.35 -59.45,7.31 -18.96,2.57 -38.51,5.53 -57.47,8.1l-50.56 7.9c-5.33,0.79 -3.56,-0.6 -5.73,2.56 16.79,0 65.18,3.56 77.82,1.78l68.13 -2.96c4.94,0 4.74,-0.79 9.29,-0.99 13.23,-0.59 25.67,-1.58 37.72,-2.96 8.89,-0.99 33.97,-5.53 39.7,-1.38 15.99,12.04 47.59,2.37 66.55,2.37 1.98,-4.15 3.36,-19.95 0.99,-25.09 -4.15,-8.88 -7.11,-7.9 -10.86,-20.54 -1.58,-5.53 -3.75,-23.89 -7.51,-26.86 -1.77,-1.18 -0.79,0 -2.76,-1.38 -4.54,-3.55 -4.54,-12.44 -5.93,-17.97 -2.37,-9.28 -10.07,-43.85 -12.44,-49.18l-2.96 -12.64c-8.1,-33.57 -5.73,-50.36 -7.51,-83.15 -0.59,-10.27 -2.76,-18.36 -3.16,-28.24 -0.59,-10.86 2.37,-15.21 -0.59,-28.44 -5.33,-22.32 0.99,-18.17 -2.17,-26.07 -2.17,-5.33 -4.35,-3.16 -3.36,-9.68 0.59,-4.34 0,-7.3 2.17,-11.45 4.55,-8.89 1.58,-14.81 0.4,-26.07 -0.79,-5.33 1.38,-7.31 0,-13.43 -0.59,-2.96 -1.19,-2.96 -1.58,-5.93 -0.4,-2.37 -0.4,-5.33 -0.79,-7.5 -0.79,-6.52 1.78,-5.93 1.78,-13.04 5.53,0.4 3.55,2.97 9.87,4.55 5.14,1.18 6.72,-0.4 11.65,0.98 11.06,2.77 11.46,0.79 24.3,5.93 6.91,2.76 17.18,0.79 23.7,5.53 3.75,2.57 3.75,5.13 9.08,2.17 3.95,-2.17 4.74,-5.33 5.73,-9.87 9.87,4.74 9.48,0.39 28.64,13.03l24.29 18.57c8.1,6.71 12.44,15.99 19.35,23.5 7.31,8.1 13.43,13.63 23.7,18.96 7.31,3.75 14.03,7.11 22.32,8.89 3.56,0.79 6.12,1.18 9.68,1.77 33.57,6.72 69.72,-13.43 84.92,-42.06 8.3,-16 9.48,-32.59 2.77,-48.59 -4.94,-11.45 -15.21,-21.33 -26.47,-26.86 -13.03,-6.12 -28.83,-10.27 -43.25,-9.08l-19.16 1.38c-11.45,1.78 -20.54,5.92 -31.4,9.68 -20.93,7.11 -59.84,15.6 -82.75,13.03 -3.36,-0.39 -5.73,-1.78 -9.48,-1.97 0.39,-12.25 3.16,-10.27 -4.15,-24.1 9.28,-0.79 65.37,-18.56 76.04,-21.92 3.95,-1.38 8.1,-2.77 12.44,-4.15 3.36,-1.18 9.28,-2.37 10.67,-6.12 -24.3,0 -66.56,7.9 -91.25,12.05 -36.73,6.12 -27.65,7.5 -30.81,-5.73l-6.71 -39.3c-3.36,-10.47 -1.58,3.75 -1.58,-16 0,-38.91 -12.84,-46.02 -18.17,-62.21 -3.36,-10.27 -5.53,-21.33 -7.51,-32.2 -4.34,-23.3 0.2,-11.45 1.58,-19.35 0.4,-2.57 -1.58,-8.1 -1.97,-11.65 -1.39,-14.42 -2.37,-32.39 -5.73,-46.22 -1.78,-6.91 -4.15,-14.42 -7.31,-19.95l-10.47 -15.4c-8.49,-10.67 -23.1,-14.22 -35.55,-17.58l-22.31 -4.94 15.01 -24.68c1.97,-3.76 1.77,-6.92 3.35,-10.08 2.77,-5.53 3.95,0 4.55,-9.08 0.59,-8.49 1.58,-4.94 2.96,-10.47 1.38,-5.13 1.97,-21.13 3.36,-23.9 2.56,1.98 1.97,2.77 3.35,6.13 0.6,1.77 -0.19,-1.39 0.79,2.17 3.95,-2.96 3.36,-5.93 3.36,-9.68 0.4,-11.85 2.77,-8.89 -2.96,-21.92 -3.75,-7.9 -1.78,-9.09 -8.49,-14.81 -5.53,-4.74 3.16,-1.98 -3.95,-5.93 -3.95,-2.37 -9.88,-7.31 -14.22,-7.7 -6.32,-0.4 -4.55,1.97 -12.64,-1.19 -13.04,-5.53 -4.94,-6.71 -21.33,-3.16 -7.51,1.78 -15.01,4.94 -21.93,8.3 -9.87,5.13 -8.88,3.75 -14.61,14.61 -0.99,1.58 -1.78,2.77 -2.77,4.74 -1.97,4.35 -0.59,2.18 -0.98,4.74 -0.4,4.15 -2.77,6.92 -3.76,11.26 10.47,-2.57 30.42,-19.55 58.46,-21.92 -1.97,2.37 -7.11,4.54 -10.27,6.52l-31.6 18.36c-3.55,2.18 -6.91,3.76 -10.86,5.93 -11.26,6.32 -4.15,6.12 -8.69,24.49 -1.18,4.34 -1.97,5.13 -4.74,7.9 -1.58,1.58 -0.99,0 -1.78,2.37l5.34 0c-2.57,3.95 -1.78,4.54 -0.2,7.5 1.18,2.57 0.59,7.51 2.17,9.09 1.38,1.58 0.99,0.2 2.77,-0.59 0.19,-0.2 0.19,-0.4 0.39,-0.2 -0.79,3.16 -1.38,6.32 -2.37,9.87 -1.97,6.92 -8.49,7.51 -12.24,12.84 -3.16,4.15 -0.79,3.75 -6.52,5.93 -13.23,5.53 -20.54,12.44 -29.63,21.52 -10.46,10.47 -22.91,19.36 -30.81,31.8 -14.02,22.71 -11.45,50.17 -0.79,71.3 6.92,13.82 6.92,27.25 8.5,42.46 1.58,15.01 3.35,30.61 4.93,45.23 1.98,17.58 4.35,29.03 4.35,46.81l9.48 -14.42c3.36,-5.33 6.32,-9.68 9.28,-14.81 4.15,-7.11 36.54,-29.43 45.62,-37.92 2.77,-2.37 4.15,-3.36 6.72,-5.53 7.5,-6.72 17.58,-19.56 24.88,-24.3z"/>
     <path class="fil1" d="M2355.23 1111.29c0,-4.94 0,-1.98 -0.99,-3.16 0,4.94 0,2.17 0.99,3.16z"/>
     <path class="fil1" d="M2198.81 1040.39c2.57,-0.6 1.38,0.59 2.17,-1.98l-2.17 1.98z"/>
     <path class="fil1" d="M2332.32 1050.85l0.59 2.18 -0.59 -2.18z"/>
     <path class="fil1" d="M2354.24 1108.13l-0.59 -2.17 0.59 2.17z"/>
    </g>
    <path class="fil2" d="M2596.18 684.89l0 -0.99c11.85,0 35.55,-20.94 47.6,-15.41 3.95,1.78 3.36,1.98 3.36,5.93 -6.52,-7.7 -12.64,-5.14 -24.3,0.79 -10.86,5.53 -16.19,9.68 -26.66,9.68zm-11.65 -27.06c0,12.05 1.38,17.97 9.28,26.27 14.02,14.41 35.95,13.43 48.98,-0.6 15.21,-16.19 7.31,-40.48 -0.79,-44.43 -2.37,-1.39 -43.65,-6.13 -52.73,4.74 -2.37,2.76 -4.74,10.07 -4.74,14.02z"/>
    <path class="fil3" d="M2577.42 1136.37l11.85 -6.52c0.2,-0.19 0.59,-0.19 0.79,-0.39 6.32,-3.95 1.78,-2.57 5.92,-5.53 2.97,-2.37 1.58,0.2 4.74,-3.56 6.13,-7.3 4.55,-2.17 8.69,-7.3 6.52,-8.1 1.19,-1.78 8.3,-7.31l35.55 -36.34c10.66,-8.49 9.48,-11.06 15.4,-16 5.14,-3.95 3.95,-5.53 6.92,-8.69 2.56,-2.57 1.77,0.2 4.54,-3.75 2.76,-3.75 -0.4,-1.38 3.55,-4.74 5.14,-4.35 1.98,-3.16 5.73,-6.91l7.11 -8.5c3.56,-4.74 6.32,-5.92 6.52,-9.67l-0.59 -1.98 -24.89 30.42c-1.38,1.77 -2.37,2.37 -3.95,4.34 -22.12,26.07 -69.12,71.69 -96.18,92.43z"/>
    <path class="fil4" d="M2592.03 640.05c2.57,-0.79 8.3,-5.13 17.58,-5.13 10.86,0 20.15,1.97 30.22,1.97 -9.09,-13.62 -38.12,-11.65 -47.8,3.16z"/>
    <path class="fil5" d="M2523.11 1176.07c3.55,-0.99 4.54,-2.17 7.7,-3.95l35.15 -21.92c5.14,-3.36 9.09,-5.93 14.42,-9.68 -4.94,-2.37 -7.11,2.17 -7.11,2.17 1.19,-0.39 4.74,-1.97 1.98,-5.33 -2.18,2.96 -3.56,3.55 -6.13,5.53 -2.17,1.78 -4.14,3.36 -6.32,4.94l-19.35 14.02c-5.73,4.15 -18.57,11.65 -20.34,14.22z"/>
    <path class="fil6" d="M2070.63 764.08c3.36,-0.39 2.18,29.04 2.97,32.39 1.38,4.74 -0.6,2.37 2.17,2.57l-1.98 -52.53c-3.95,2.76 -3.16,12.44 -3.16,17.57z"/>
    <path class="fil7" d="M2099.86 1044.53l-3.16 -2.17c-2.17,-1.78 0,-1.38 -3.16,-2.17 0.2,2.76 -0.19,3.55 1.78,4.94 0.99,0.59 -0.79,0.59 2.37,0.39 2.17,0 0.99,-0.2 2.17,-0.99z"/>
    <path class="fil8" d="M2332.32 1050.85l-2.57 -7.9c-1.18,-2.76 -0.79,-1.58 -1.58,-2.56 0.2,3.95 1.58,7.5 4.15,10.46z"/>
    <path class="fil9" d="M2689.99 1047.89l4.15 -4.34c-2.37,-1.78 -4.34,1.77 -4.54,2.56 -0.99,2.77 -0.79,0.6 0.39,1.78z"/>
   </g>
   <path class="fil10" d="M1912.44 1211.22l11.65 0 -0.2 -821.6 -11.45 0.4 0 821.2z"/>
   <path class="fil11" d="M733.95 1218.53l12.05 -0.59c1.78,-2.96 4.74,-5.53 6.71,-8.3l20.35 -23.5c14.22,-17.97 41.47,-46.61 54.31,-63.2 4.34,-5.73 9.08,-10.47 13.63,-16l122.64 -141.8c1.78,53.32 0,109.81 0,163.53 0,13.82 -1.77,72.88 0.2,81.57 1.78,6.91 7.9,7.9 13.04,7.9 36.73,0 35.94,2.56 35.94,-25.28 0,-9.48 -1.18,-317.19 0.59,-327.26 -8.88,-6.32 -2.37,-6.32 -18.36,-6.32l-123.24 145.56c-9.48,11.06 -93.42,110.4 -95.99,111.39 0,-16.79 1.19,-246.68 -0.79,-250.83 -2.96,-6.32 -9.08,-6.12 -14.81,-6.12 -34.17,0.39 -32.19,-3.95 -32.19,30.61 0,102.31 1.18,210.73 0,312.84 -0.2,14.42 1.58,7.7 5.92,15.8z"/>
   <path class="fil11" d="M1541.53 967.51c1.78,-3.75 3.75,-9.68 6.71,-12.44l48 102.89 -97.17 0 42.46 -90.45zm136.67 151.09c-3.75,-3.56 -5.92,-10.67 -8.29,-15.8 -27.26,-59.25 -58.07,-121.86 -83.94,-179.93 -5.14,-11.25 -10.27,-21.52 -15.41,-32.78 -16.39,-36.54 -10.66,-31.01 -31.2,-30.22 -14.62,29.03 -28.84,60.24 -42.66,89.86l-106.06 224.17c-17.97,37.52 -17.97,29.62 -10.86,44.24l43.25 -0.2 53.52 -112.97 141.41 0 41.08 85.91c2.77,5.73 9.88,24.69 14.42,27.26l40.29 -0.2c2.17,-4.54 5.93,-7.11 4.35,-11.85 -3.95,-11.65 -39.5,-79.2 -39.9,-87.49z"/>
   <path class="fil11" d="M454.69 885.94c-0.2,6.32 -63.6,147.34 -71.89,167.09 -12.05,28.44 -24.69,55.3 -36.54,83.54 -2.57,5.92 -31.6,68.53 -30.61,73.47 0.59,2.17 3.95,6.71 6.32,8.1l39.3 0c4.34,-2.37 6.12,-10.27 8.1,-14.82l20.54 -47.2c3.55,-8.29 24.68,-58.85 27.05,-61.22l57.48 -133.12c2.37,2.57 54.31,122.65 56.88,131.93l40.88 94.21c1.38,3.36 10.86,29.23 14.61,30.22l40.89 0c7.3,-14.82 7.11,-5.14 -9.29,-43.65l-56.68 -130.94 -78.41 -184.27 -16.39 0.2c-1.18,3.35 -9.28,23.3 -12.24,26.46z"/>
   <path class="fil11" d="M1180.1 906.48c8.1,-0.99 94.8,-0.2 110.8,-0.2 9.68,0 27.65,3.36 27.65,-9.87 0,-16.2 2.57,-29.03 -3.75,-34.76 -3.16,-2.77 -3.36,-2.37 -8.69,-2.37l-160.17 0c-6.13,0 -13.83,1.38 -13.83,8.89l0 338.91c0,6.32 4.15,11.06 10.47,11.06 20.74,0 36.93,3.75 37.52,-10.87l0 -60.04c0,-77.81 -1.77,-165.11 0,-240.75z"/>
   <path class="fil11" d="M522.03 385.08l-31.6 0 0 133.31 -43.45 0.4 -0.39 -133.71 -31.01 0 0 133.51 -42.66 0.2 -0.39 -133.71 -31.6 0 0.39 161.56 180.32 0 0.39 -161.56z"/>
   <path class="fil11" d="M859.17 476.72c-12.25,67.94 -117.32,53.52 -103.89,-22.32 4.54,-26.26 30.22,-48.78 62.61,-42.06 25.87,5.33 47.2,31.6 41.28,64.38zm-26.47 70.71c6.91,-4.35 16.2,-4.74 29.82,-17.38 51.16,-47.21 18.17,-104.28 17.78,-107.44 -1.19,-0.99 -0.79,-0.6 -1.98,-1.98 -4.14,-4.94 -4.34,-6.71 -11.65,-14.42 -3.95,-4.14 -11.06,-10.07 -16.98,-13.62 -42.47,-25.48 -97.57,-8.1 -118.9,37.32 -15.8,33.78 -6.12,68.93 12.84,91.64 20.34,24.3 46.02,33.18 89.07,25.88z"/>
   <path class="fil11" d="M1284.78 475.73l53.72 0.4 0 70.51 31.2 0 0 -161.56 -31.2 0 -0.2 60.83 -53.52 -0.2 0 -60.63 -31.21 0 0 161.56 31.21 0 0 -70.91z"/>
   <path class="fil11" d="M1670.5 415.3l-0.2 36.14c-17.18,0.2 -35.55,1.58 -35.94,-17.18 -0.6,-20.74 17.77,-19.16 36.14,-18.96zm-68.53 26.46c4.34,22.72 12.04,27.06 30.81,34.96l-35.95 69.72 33.97 0.2c5.93,-14.03 18.17,-36.74 25.68,-51.95 7.7,-15.6 4.34,-13.03 14.02,-13.03l0 64.58 30.81 0.4c0,-19.56 -1.19,-154.65 0.79,-161.16 -16.79,-2.18 -59.84,-0.99 -74.06,4.54 -19.16,7.11 -27.85,25.67 -26.07,51.74z"/>
   <path class="fil11" d="M1467.07 483.24c1.98,-7.9 17.78,-48.59 21.53,-54.12l20.74 54.12 -42.27 0zm-9.87 -61.03c0,9.09 -41.48,104.48 -46.81,124.43l31.99 0 12.84 -33.18 64.39 -0.2c3.95,2.96 12.24,27.65 13.82,33.38l32.2 0c-3.17,-12.25 -11.86,-31.21 -16.6,-43.65 -2.96,-7.7 -15.8,-38.12 -15.8,-43.65 -3.16,-3.16 -6.51,-14.22 -8.09,-18.56 -2.37,-6.32 -4.74,-12.25 -7.31,-18.96 -2.37,-6.32 -11.46,-34.17 -15.6,-36.74l-29.43 0.2c-4.94,6.91 -10.86,32.19 -15.6,36.93z"/>
   <path class="fil11" d="M691.88 546.24c-0.98,-3.75 -38.51,-55.89 -45.62,-66.75 -4.54,-6.52 -11.45,-15.21 -15.01,-22.32l55.3 -72.09 -36.93 0c-2.77,4.35 -37.33,48.98 -43.25,54.51l0 -54.51 -31.8 0.4c1.97,7.11 0.39,140.81 0.59,160.76l31.21 0.4 0 -70.51 49.17 70.31 36.34 -0.2z"/>
   <path class="fil11" d="M962.46 429.72c0,7.3 -38.32,100.33 -43.85,116.52l32.59 0.4 44.83 -117.71c4.15,7.11 28.64,74.26 33.78,87.69 2.76,7.5 9.87,23.89 10.66,30.02l33.38 -0.4 -61.82 -161.16 -31.8 0.2c-1.97,7.11 -5.72,16 -8.49,22.91 -2.57,6.52 -4.74,16.98 -9.28,21.53z"/>
   <path class="fil11" d="M1140.01 473.56c19.16,-0.2 38.71,1.98 39.5,21.73 0.79,23.1 -18.76,21.92 -39.5,21.72l0 -43.45zm23.31 72.68c19.35,-2.17 28.83,-7.31 37.52,-18.96 3.95,-5.13 6.91,-11.85 8.49,-19.95 1.98,-11.45 -0.98,-17.57 -0.79,-26.66 -8.88,-8.29 -4.14,-34.56 -68.53,-34.76l0 -60.83 -31.01 0.2 0.2 161.36 54.12 -0.4z"/>
   <path class="fil11" d="M1675.04 707.4c-6.91,1.78 -31.99,1.19 -38.91,-0.39 -24.68,-5.53 -24.09,-39.11 1.39,-42.86 7.5,-0.99 30.41,-1.58 37.52,-0.4l0 43.65zm-78.21 -30.02c1.38,7.9 -0.39,14.42 2.37,22.91 6.52,19.36 24.1,26.66 45.43,27.85 -2.18,5.13 -9.48,13.23 -12.84,17.58 -4.74,5.92 -8.49,11.06 -12.84,16.78 -28.64,36.54 -31.99,35.16 -0.99,34.76l41.08 -53.52c6.32,-8.29 10.08,-16.19 16,-14.81 0,11.45 0,23.11 0,34.56 0,5.93 -1.58,28.84 1.98,32.19 3.55,3.56 15.8,1.39 18.36,0.2 1.39,-38.31 0.2,-91.64 0.2,-132.72 0,-20.74 2.37,-19.95 -16.79,-19.95 -30.41,0 -61.42,-4.54 -76.82,21.53 -1.19,2.17 -1.78,3.75 -2.57,6.12 -0.4,1.39 -0.4,1.98 -0.99,3.36 -1.38,3.56 0.2,0.59 -1.58,3.16z"/>
   <path class="fil11" d="M905.97 646.18c2.18,6.51 0.79,95.39 0.79,115.14 0,10.27 -2.56,28.64 1.98,35.35 5.33,1.19 6.12,-0.2 8.89,-3.16 20.34,-22.51 45.62,-54.71 65.96,-77.02 4.74,-5.14 7.9,-9.09 12.05,-14.03 3.75,-4.54 7.9,-9.28 11.85,-13.03l0.2 95.79c-0.2,17.57 4.93,10.07 19.15,12.44 3.16,-6.72 2.18,-8.69 2.18,-17.78l0 -117.9c0,-12.05 1.77,-18.57 -5.34,-18.57 -2.17,-0.2 -3.16,0.79 -5.72,3.95 -25.28,28.84 -68.14,82.56 -90.66,105.86 -1.18,-17.97 -0.19,-60.24 -0.19,-82.36 0,-6.51 2.56,-22.12 -1.78,-25.87 -2.96,-2.96 -12.64,-3.16 -17.97,0.2 -0.2,0 -0.6,0.59 -0.79,0.39 0,-0.19 -0.4,0.4 -0.6,0.6z"/>
   <path class="fil11" d="M1270.36 796.47c1.78,0.2 0.59,-0.59 1.98,0.79 5.33,0 12.44,0.6 16.59,-0.98 3.55,-8.69 -0.4,-55.7 1.18,-70.51l69.32 -0.2c1.98,14.22 -2.17,62.41 1.39,70.31 3.95,2.17 14.22,1.98 18.36,0.4 1.78,-4.35 2.37,-145.36 0.4,-152.08 -4.54,-1.78 -14.81,-2.17 -17.97,0.4 -4.94,4.14 -0.2,44.63 -2.18,60.83l-69.32 0 -0.2 -45.63c0,-4.74 0.99,-11.85 -1.18,-15.2 -4.74,-2.97 -15.01,-1.98 -18.57,0 -1.97,5.92 -1.58,146.54 0.2,151.87z"/>
   <path class="fil11" d="M601.43 796.47c3.36,-8.69 0,-56.09 1.18,-70.9l69.52 0.4c0.79,11.06 0.2,24.09 0.2,35.35 0,6.32 -1.78,30.81 2.17,34.36 3.16,2.97 13.24,1.98 17.19,0.79 2.56,-6.12 1.18,-95.39 1.18,-114.74 0,-6.32 1.78,-33.18 -1.78,-36.74 -3.16,-3.16 -14.41,-2.76 -16.98,-0.2 -3.56,3.56 -1.58,54.32 -1.98,60.64l-69.52 -0.4c-0.79,-10.07 2.77,-55.69 -1.97,-60.04 -2.37,-2.76 -3.75,-1.97 -8.3,-1.97 -12.83,0 -10.27,3.35 -10.27,20.14l0 115.54c0,5.13 -1.77,14.22 1.98,16.98 2.76,2.97 13.63,1.78 17.38,0.79z"/>
   <path class="fil11" d="M743.43 645.98c2.37,8.29 0.59,63 0.59,76.04 0,23.3 -0.98,52.73 0.4,73.66 4.54,1.98 14.42,2.37 19.16,0.79 3.55,-8.49 0,-56.09 1.38,-70.7l69.12 -0.2c1.19,7.7 0.4,42.07 0.4,54.31 0,9.88 -1.78,16 5.33,17.19 0.99,0.19 4.15,0.19 5.33,0.19 4.15,0 5.73,0.2 8.89,-0.98 1.98,-4.94 2.37,-145.36 0.2,-152.08 -4.15,-1.58 -15.01,-1.97 -17.78,0.4 -5.13,4.34 0,44.63 -2.37,60.83l-69.12 0c-0.99,-10.27 2.76,-56.09 -1.98,-60.44 -3.75,-3.75 -14.02,-2.37 -19.55,0.99z"/>
   <path class="fil11" d="M1133.89 641.83c-0.59,0.4 -11.26,3.95 -14.02,5.14 -63.4,29.42 -57.87,115.34 -7.31,143.18 33.18,18.57 62.01,7.51 69.91,8.5l12.64 -5.53c8.5,-4.15 30.02,-18.17 28.44,-25.28 -1.97,-3.56 -11.06,-10.27 -14.41,-11.85 -13.63,16.59 -38.71,32.78 -72.49,22.12 -55.89,-17.38 -55.49,-98.56 0.99,-115.54 13.83,-4.15 30.61,-3.36 43.25,1.58 16.99,6.52 19.56,13.23 28.25,21.72 3.16,-1.38 13.62,-8.88 15.99,-11.85 -4.74,-10.27 -20.93,-22.91 -34.56,-28.24 -19.75,-7.9 -34.76,-7.31 -56.68,-3.95z"/>
   <path class="fil11" d="M540.2 662.37c1.58,-4.15 1.58,-13.82 0.2,-18.17 -6.52,-2.57 -71.1,-0.99 -83.34,-0.99 -3.95,0 -6.72,0.4 -6.72,4.74 0,23.51 -1.97,134.3 0.99,148.52 7.11,2.37 33.97,0.79 44.04,0.79 4.94,0 39.5,1.58 43.06,-1.58 1.58,-1.38 7.3,-18.76 -4.94,-18.76l-62.61 0 0.4 -52.53c12.64,0 25.47,0 38.11,0 19.75,0 31.01,3.16 31.01,-6.72 0,-15.6 -0.2,-13.63 -13.43,-13.43 -11.06,0 -50.36,0.59 -56.09,-0.39l0 -39.9c14.02,-3.55 58.66,2.57 69.32,-1.58z"/>
   <path class="fil11" d="M1493.54 685.68l20.54 42.46 -41.08 0.2 18.96 -40.69c0.19,-0.2 0.39,-0.39 0.59,-0.59l0.99 -1.38zm-29.63 10.46c-0.39,4.94 -19.16,42.07 -22.71,49.77 -25.08,54.71 -31.21,52.14 -1.19,51.16l23.11 -48.59 60.04 0 23.7 48.59c23.31,1.77 22.32,-0.6 14.42,-16.4 -7.9,-15.8 -46.61,-98.75 -46.61,-102.1l-2.96 -4.15c-3.36,-6.52 -12.64,-30.22 -16,-31.21 -7.51,-2.37 -9.28,7.31 -11.85,12.45 -2.17,4.74 -4.15,8.69 -6.32,13.43 -1.58,3.55 -10.67,24.29 -13.63,27.05z"/>
   <path class="fil11" d="M361.27 796.08c3.95,2.17 12.44,1.38 16.98,0.79 3.36,-5.14 2.18,-6.91 2.18,-14.81 0,-26.86 -1.19,-102.7 0.39,-118.7 8.3,0 25.68,1.38 31.8,-1.19 1.58,-4.14 1.58,-13.62 0.2,-17.97 -5.14,-1.97 -80.98,-1.97 -85.52,0.2 -1.38,4.34 -1.38,13.63 0,17.77 6.52,2.97 23.3,1.19 31.99,1.19 1.98,18.17 -2.96,126.79 1.98,132.72z"/>
  </g>
 </g>
</svg>
