<?xml version="1.0" encoding="UTF-8"?>
<!DOCTYPE svg PUBLIC "-//W3C//DTD SVG 1.1//EN" "http://www.w3.org/Graphics/SVG/1.1/DTD/svg11.dtd">
<!-- Creator: CorelDRAW X7 -->
<svg xmlns="http://www.w3.org/2000/svg" xml:space="preserve" width="210mm" height="297mm" version="1.1" style="shape-rendering:geometricPrecision; text-rendering:geometricPrecision; image-rendering:optimizeQuality; fill-rule:evenodd; clip-rule:evenodd"
viewBox="0 0 21000 29700"
 xmlns:xlink="http://www.w3.org/1999/xlink">
 <defs>
  <style type="text/css">
   <![CDATA[
    .fil8 {fill:#063353}
    .fil1 {fill:#073454}
    .fil0 {fill:#1A6D86}
    .fil3 {fill:#1B718B}
    .fil5 {fill:#1B728C}
    .fil6 {fill:#1B728D}
    .fil7 {fill:#1B748E}
    .fil9 {fill:#1C7590}
    .fil11 {fill:#243A55}
    .fil4 {fill:#32495D}
    .fil2 {fill:#33485C}
    .fil10 {fill:#4691CD}
   ]]>
  </style>
 </defs>
 <g id="Слой_x0020_1">
  <metadata id="CorelCorpID_0Corel-Layer"/>
  <g id="_2272448456672">
   <g>
    <path class="fil0" d="M15568 6766l3 10c-1,19 -15,25 -33,49l-36 43c-19,19 -3,13 -29,35 -20,17 -4,5 -18,24 -14,20 -10,6 -23,19 -15,16 -9,24 -35,44 -30,25 -24,38 -78,81l-180 184c-36,28 -9,-4 -42,37 -21,26 -13,0 -44,37 -16,19 -9,6 -24,18 -21,15 2,8 -30,28 -1,1 -3,1 -4,2l-60 33 -11 5c14,17 -4,25 -10,27 0,0 11,-23 36,-11 7,-3 24,-17 34,-24 91,-63 235,-178 321,-254 13,-12 18,-20 33,-31l102 -94c21,-20 49,-45 65,-66 -6,-6 -7,5 -2,-9 1,-4 11,-22 23,-13l112 -115c13,-13 14,-19 26,-32l135 -155c103,-123 255,-341 336,-477l148 -259c7,-14 13,-26 19,-39 189,-378 393,-943 263,-1504 -41,-176 -113,-339 -206,-485 -15,-24 -31,-46 -48,-68 -82,-111 -176,-209 -288,-293l-139 -93c-14,-9 -22,-13 -38,-21 -160,-80 -272,-126 -478,-155 -372,-51 -752,26 -1105,142l-83 43c61,0 703,103 719,109 111,45 205,95 306,159 129,84 249,179 362,282 17,16 31,32 47,48 222,222 408,500 495,804 30,106 41,195 55,315 11,96 -4,269 -18,350 -18,111 -40,203 -67,303 -24,88 -128,367 -185,459l-100 180c-56,92 -141,220 -207,305 -8,9 -14,13 -19,23z"/>
    <path class="fil0" d="M12485 6923c16,4 5,2 16,11l16 11c57,0 106,-5 169,-5 34,0 47,6 84,5 30,0 60,0 90,0 -15,-21 -29,-40 -44,-62 -15,-22 -27,-43 -41,-64 -53,-81 -131,-221 -169,-306 -100,-225 -176,-456 -200,-709 -2,-23 -5,-86 -11,-102 -14,-1 -4,11 -11,-13 -4,-17 2,-166 -15,-164 -21,91 0,284 5,375 11,194 71,498 108,684 12,61 32,116 26,162 -5,31 -16,164 -23,177z"/>
    <polygon class="fil0" points="14639,7621 14634,7621 14638,7627 "/>
    <polygon class="fil0" points="14660,7611 14649,7616 "/>
    <polygon class="fil0" points="14649,7616 14639,7621 "/>
   </g>
   <g>
    <path class="fil1" d="M13836 7341l2 2c0,0 -2,-1 -2,-2zm1088 -1172l11 26c3,13 5,20 5,38 -19,-5 -14,-1 -16,-21 -2,-8 0,-33 0,-43zm-95 -53c1,2 1,2 2,4 0,2 1,3 1,3l2 73c0,-27 -5,-45 -5,-80zm153 21c8,36 18,72 0,85 -5,-20 -4,-22 -6,-48 -1,-21 -9,-28 6,-37zm206 -68l5 0c0,101 16,79 79,79l0 11c-35,8 -26,5 -68,5 0,34 9,75 0,95 -16,-11 -16,-35 -16,-74l0 -21c-112,-9 -79,-18 -79,63 0,19 -4,21 -5,37 -16,-11 -12,-9 -11,-36 0,-82 5,-66 -31,-71 -14,-1 -28,-4 -48,-4l0 -5c85,0 74,16 74,-68 24,18 0,25 21,68 51,-12 79,12 79,-11 0,-25 -5,-5 -3,-29 1,-13 3,-23 3,-39zm-507 -16c0,-26 6,-83 21,-105 0,61 -5,127 11,173 22,58 56,64 84,106 -30,-2 -67,-38 -82,-60 -18,-26 -34,-73 -34,-114zm285 -26l323 -1c24,2 20,1 31,17l-174 0c-66,-1 -118,-11 -180,-11l0 -5zm90 -74l169 -5c18,0 20,3 37,5 -36,25 -156,5 -206,5l0 -5zm-16 -85c-8,0 -8,-6 -10,-10 43,0 78,-12 112,-15 23,-1 95,7 120,10 -17,22 -46,4 -108,13 -23,4 -37,3 -59,0 -31,-4 -24,2 -55,2zm-602 11c37,-19 133,-18 210,-33 18,-4 51,-13 70,-14 -10,37 -47,45 -71,166 -15,72 -18,9 -189,-97 -12,-7 -16,-7 -20,-22zm-580 -132l0 0zm-301 -687l107 257c14,31 28,59 40,87l136 297c8,18 16,25 18,46l-171 -320 -72 -177c-12,-36 -58,-158 -58,-190zm-6 -15c6,6 6,-9 6,15 -6,-5 -6,10 -6,-15zm0 0c-5,-7 -5,11 -5,-16 5,7 4,-6 5,16zm-10 -27l1 2c0,0 -2,-1 -1,-2zm-27 -95l2 2c0,0 -2,-1 -2,-2zm-5 -21c5,7 5,-11 5,16 -5,-6 -3,6 -5,-16zm-84 11c4,-12 -1,-7 10,-16 -4,15 1,8 -10,16zm79 -27c5,6 5,-9 5,16 -5,-6 -5,9 -5,-16zm438 6c37,0 44,25 48,63 8,80 -1,116 -11,201 -3,31 -4,73 -11,100 -21,-11 -20,-15 -36,-27 3,14 25,52 33,67 66,110 20,46 39,141 5,27 17,64 17,88 -13,-9 -31,-23 -40,-38 -4,-6 -6,-12 -9,-18 -34,-65 -99,-63 -118,-98 -56,-102 -40,-154 -67,-261 -18,-69 -40,-141 -40,-213 0,-62 22,-104 26,-159 34,23 74,191 82,230 14,61 35,9 34,124 0,30 14,84 28,109 6,11 4,7 9,13 -2,-22 -5,-12 -5,-32 0,-72 70,-217 21,-290zm-507 5l0 0zm6 -248c8,14 28,98 32,115 7,24 30,100 31,122l-11 -26c-13,-53 -52,-159 -52,-211zm0 0c-6,-7 -7,22 -5,-10 1,-12 1,-5 5,-11l0 21zm-11 -32c4,-14 17,1 4,1 0,0 -12,26 -4,-1zm-259 -353c-10,14 -45,32 -62,48 -100,93 -233,271 -13,322l191 52c-26,0 -36,5 -63,5 -23,1 -46,0 -69,0 -175,1 -339,-129 -247,-263 29,-42 14,-36 46,-59 44,-30 160,-104 217,-105zm0 0l10 -7 -10 7zm396 -196l-3 11 3 -11zm0 0c2,-26 23,-74 31,-96 12,-32 22,-61 22,-105 -40,-9 -13,-22 -159,-46 -23,-4 -38,-10 -58,-12l0 -10c32,-8 61,-34 148,-26l164 15c-10,43 -87,198 -123,247l-25 33zm-142 845c-12,43 -202,273 -261,331 -18,19 -25,27 -42,47 -43,52 -93,89 -129,124 -62,62 -69,51 -80,95 -11,47 -21,99 -22,147 -1,35 6,48 6,85 53,0 46,1 128,-41 30,-15 38,-13 68,-22l67 -22c56,-18 169,-42 229,-12 24,11 36,26 36,60 -12,-4 -5,-3 -13,-9 -11,-8 5,-2 -16,-10 -79,-29 -265,20 -315,24 8,33 148,295 182,357 12,22 20,25 21,40 0,1 0,3 0,3 -1,15 -4,12 -15,9 -12,-3 -25,-26 -31,-33l-304 -323 61 165c8,19 19,33 28,51 12,23 16,23 33,41 14,14 23,28 34,45 18,29 63,54 70,83 -34,1 -91,19 -125,28 -38,9 -103,17 -112,41 34,0 46,4 74,5 44,2 187,-16 232,-16l13 20c1,1 2,2 2,3 1,0 2,2 3,2l141 154c18,29 -3,37 26,59 23,16 9,-11 25,59 10,43 23,101 23,152 -102,0 -182,26 -245,88l-53 58c-33,34 -59,65 -99,91 -17,11 -9,0 -17,15 -16,30 -3,94 20,126 12,17 18,13 24,34 -28,0 -8,0 -16,5l-26 -32c-19,5 -29,13 -43,21l-6 -42 -9 37 -8 -14c-10,-19 -17,-39 -12,-63 9,-41 38,-24 46,-55l-126 80c-52,31 -55,1 -159,47 -159,70 -47,181 39,214 19,8 34,9 52,16 16,7 33,16 46,24 36,20 49,31 69,68l-153 11c-54,1 -105,1 -158,5l-312 21c16,10 181,25 226,32 75,13 147,26 226,39l172 23c23,2 44,-1 66,2 81,12 166,-6 250,-6 -7,-32 1,-2 23,-40 33,-59 -35,-123 -58,-158 -27,-41 -29,-53 -69,-84 -26,-21 -57,-59 -92,-67 20,-29 69,-35 100,-59 13,-11 17,-13 32,-20 50,-22 99,-47 148,-68 96,-43 136,-68 236,-81 42,-6 59,2 91,-20 -23,-98 -107,-261 -151,-471l-39 -173c5,6 3,1 9,12 34,62 260,739 272,784 12,44 28,91 42,138l36 143c-18,-21 -9,-33 -26,-53 1,18 41,163 50,230 4,26 -28,140 -18,251 -24,0 -43,8 -66,13l-229 25c-99,12 -201,22 -301,37 -96,13 -195,28 -291,41l-256 40c-27,4 -18,-3 -29,13 85,0 330,18 394,9l345 -15c25,0 24,-4 47,-5 67,-3 130,-8 191,-15 45,-5 172,-28 201,-7 81,61 241,12 337,12 10,-21 17,-101 5,-127 -21,-45 -36,-40 -55,-104 -8,-28 -19,-121 -38,-136 -9,-6 -4,0 -14,-7 -23,-18 -23,-63 -30,-91 -12,-47 -51,-222 -63,-249l-15 -64c-41,-170 -29,-255 -38,-421 -3,-52 -14,-93 -16,-143 -3,-55 12,-77 -3,-144 -27,-113 5,-92 -11,-132 -11,-27 -22,-16 -17,-49 3,-22 0,-37 11,-58 23,-45 8,-75 2,-132 -4,-27 7,-37 0,-68 -3,-15 -6,-15 -8,-30 -2,-12 -2,-27 -4,-38 -4,-33 9,-30 9,-66 28,2 18,15 50,23 26,6 34,-2 59,5 56,14 58,4 123,30 35,14 87,4 120,28 19,13 19,26 46,11 20,-11 24,-27 29,-50 50,24 48,2 145,66l123 94c41,34 63,81 98,119 37,41 68,69 120,96 37,19 71,36 113,45 18,4 31,6 49,9 170,34 353,-68 430,-213 42,-81 48,-165 14,-246 -25,-58 -77,-108 -134,-136 -66,-31 -146,-52 -219,-46l-97 7c-58,9 -104,30 -159,49 -106,36 -303,79 -419,66 -17,-2 -29,-9 -48,-10 2,-62 16,-52 -21,-122 47,-4 331,-94 385,-111 20,-7 41,-14 63,-21 17,-6 47,-12 54,-31 -123,0 -337,40 -462,61 -186,31 -140,38 -156,-29l-34 -199c-17,-53 -8,19 -8,-81 0,-197 -65,-233 -92,-315 -17,-52 -28,-108 -38,-163 -22,-118 1,-58 8,-98 2,-13 -8,-41 -10,-59 -7,-73 -12,-164 -29,-234 -9,-35 -21,-73 -37,-101l-53 -78c-43,-54 -117,-72 -180,-89l-113 -25 76 -125c10,-19 9,-35 17,-51 14,-28 20,0 23,-46 3,-43 8,-25 15,-53 7,-26 10,-107 17,-121 13,10 10,14 17,31 3,9 -1,-7 4,11 20,-15 17,-30 17,-49 2,-60 14,-45 -15,-111 -19,-40 -9,-46 -43,-75 -28,-24 16,-10 -20,-30 -20,-12 -50,-37 -72,-39 -32,-2 -23,10 -64,-6 -66,-28 -25,-34 -108,-16 -38,9 -76,25 -111,42 -50,26 -45,19 -74,74 -5,8 -9,14 -14,24 -10,22 -3,11 -5,24 -2,21 -14,35 -19,57 53,-13 154,-99 296,-111 -10,12 -36,23 -52,33l-160 93c-18,11 -35,19 -55,30 -57,32 -21,31 -44,124 -6,22 -10,26 -24,40 -8,8 -5,0 -9,12l27 0c-13,20 -9,23 -1,38 6,13 3,38 11,46 7,8 5,1 14,-3 1,-1 1,-2 2,-1 -4,16 -7,32 -12,50 -10,35 -43,38 -62,65 -16,21 -4,19 -33,30 -67,28 -104,63 -150,109 -53,53 -116,98 -156,161 -71,115 -58,254 -4,361 35,70 35,138 43,215 8,76 17,155 25,229 10,89 22,147 22,237l48 -73c17,-27 32,-49 47,-75 21,-36 185,-149 231,-192 14,-12 21,-17 34,-28 38,-34 89,-99 126,-123z"/>
    <path class="fil1" d="M13810 7283c0,-25 0,-10 -5,-16 0,25 0,11 5,16z"/>
    <path class="fil1" d="M13018 6924c13,-3 7,3 11,-10l-11 10z"/>
    <polygon class="fil1" points="13694,6977 13697,6988 "/>
    <polygon class="fil1" points="13805,7267 13802,7256 "/>
   </g>
   <path class="fil2" d="M15030 5124l0 -5c60,0 180,-106 241,-78 20,9 17,10 17,30 -33,-39 -64,-26 -123,4 -55,28 -82,49 -135,49zm-59 -137c0,61 7,91 47,133 71,73 182,68 248,-3 77,-82 37,-205 -4,-225 -12,-7 -221,-31 -267,24 -12,14 -24,51 -24,71z"/>
   <path class="fil3" d="M14935 7410l60 -33c1,-1 3,-1 4,-2 32,-20 9,-13 30,-28 15,-12 8,1 24,-18 31,-37 23,-11 44,-37 33,-41 6,-9 42,-37l180 -184c54,-43 48,-56 78,-81 26,-20 20,-28 35,-44 13,-13 9,1 23,-19 14,-19 -2,-7 18,-24 26,-22 10,-16 29,-35l36 -43c18,-24 32,-30 33,-49l-3 -10 -126 154c-7,9 -12,12 -20,22 -112,132 -350,363 -487,468z"/>
   <path class="fil4" d="M15009 4897c13,-4 42,-26 89,-26 55,0 102,10 153,10 -46,-69 -193,-59 -242,16z"/>
   <path class="fil5" d="M14660 7611c18,-5 23,-11 39,-20l178 -111c26,-17 46,-30 73,-49 -25,-12 -36,11 -36,11 6,-2 24,-10 10,-27 -11,15 -18,18 -31,28 -11,9 -21,17 -32,25l-98 71c-29,21 -94,59 -103,72z"/>
   <path class="fil6" d="M12369 5525c17,-2 11,147 15,164 7,24 -3,12 11,13l-10 -266c-20,14 -16,63 -16,89z"/>
   <path class="fil7" d="M12517 6945l-16 -11c-11,-9 0,-7 -16,-11 1,14 -1,18 9,25 5,3 -4,3 12,2 11,0 5,-1 11,-5z"/>
   <path class="fil8" d="M13694 6977l-13 -40c-6,-14 -4,-8 -8,-13 1,20 8,38 21,53z"/>
   <path class="fil9" d="M15505 6962l21 -22c-12,-9 -22,9 -23,13 -5,14 -4,3 2,9z"/>
  </g>
 </g>
 <g id="Слой_x0020_1_0">
  <metadata id="CorelCorpID_1Corel-Layer"/>
  <polygon class="fil10" points="11568,7789 11627,7789 11626,3629 11568,3631 "/>
  <path class="fil10" d="M14991 8854c49,153 268,162 357,79 54,-50 68,-105 71,-201 3,-89 1,-180 1,-269 -24,-6 -43,-5 -68,-3 0,100 5,212 -2,310 -6,95 -59,151 -159,150 -98,-2 -146,-61 -152,-157 -6,-96 -2,-206 -2,-304l-66 1c0,101 -11,309 20,394zm-323 -174c-6,-23 1,-50 8,-72 4,-10 9,-23 13,-31l16 -19c24,-63 103,-43 116,-42 10,-22 22,-33 29,-55 -115,-37 -130,12 -188,66l-3 -67 -65 -1 -1 511 65 1c7,-38 -1,-191 3,-256l7 -35zm-373 261c13,65 126,53 113,-26 -12,-72 -131,-59 -113,26zm-702 -204c-27,-273 382,-313 404,-39 22,279 -378,301 -404,39zm399 -189c-34,-37 -63,-70 -122,-90 -161,-54 -346,66 -345,257 1,192 179,310 345,256 68,-22 84,-54 123,-83l0 83 65 0 0 -512 -65 0 -1 89zm-1121 200c-40,-274 360,-323 398,-75 45,286 -364,313 -398,75zm397 -206c-15,-6 -37,-34 -53,-47 -151,-118 -404,-15 -413,203 -9,201 181,308 335,263 25,-7 55,-21 72,-32 26,-16 35,-32 60,-47 -2,128 -25,199 -143,223 -112,23 -187,-10 -247,-94l-69 0c61,187 342,207 462,85 69,-70 63,-171 63,-287 0,-117 0,-233 0,-350l-66 0 -1 83zm-715 -83c0,73 -8,477 3,512l62 0 1 -511 -66 -1zm-162 445l-257 -1c-13,-11 -4,1 -9,-17 0,-2 -1,-19 -1,-22 0,-12 1,-26 1,-39 0,-165 5,-396 -1,-546l-68 0 0 692c60,1 292,7 336,-3l-1 -64zm-798 -244c10,5 11,11 23,22 58,53 160,74 175,134 18,75 -82,166 -199,50 -17,14 -29,26 -39,48 30,50 132,92 214,58 119,-50 82,-178 82,-195 -1,-1 -2,-4 -3,-3l-8 -10c-2,-3 -6,-8 -10,-13 -48,-62 -140,-79 -180,-129 -44,-57 17,-148 113,-102 12,6 16,9 27,17l26 19c16,-11 32,-26 40,-47 -36,-21 -110,-97 -206,-49 -76,38 -87,111 -55,200zm-269 311l32 0 33 -1 0 -510 -33 -1 -5 0 -27 1 0 511zm-517 -416c29,-55 186,-70 211,-2 22,17 30,52 33,80 6,59 3,268 3,336l66 2c0,-83 0,-167 0,-250 0,-85 -4,-152 -46,-210 -51,-71 -174,-89 -268,-26 -30,20 -46,48 -67,61l0 -87 -66 1 0 509 66 2c0,-113 -17,-305 36,-385 12,-18 16,-24 32,-31zm-476 -26c24,5 59,52 53,90 1,1 2,2 2,4 0,3 2,3 2,4 17,51 -6,301 11,344l60 0c8,-56 2,-182 1,-245 0,-75 -3,-159 -42,-209 -61,-80 -176,-94 -270,-34 -28,19 -43,41 -67,61l-2 -84 -61 -1c-10,27 -10,486 0,512l60 0c16,-101 -18,-257 19,-351 16,-41 51,-78 87,-95 22,-12 46,-18 74,-18l56 9c1,0 3,1 4,2 1,0 2,1 3,2 8,6 5,3 10,9zm-964 133c4,-42 40,-91 62,-109 128,-103 310,-7 314,110l-376 -1zm70 303c61,0 200,82 340,-92l8 -10c1,-1 2,-1 3,-2l12 -32 -57 -26c-98,200 -388,138 -384,-83l459 0c8,-214 -233,-356 -414,-230 -151,105 -154,351 6,455 3,2 13,8 14,9l13 11zm-511 7l73 -2 0 -623 155 -1 0 -66 -379 -1 0 66 152 2c6,48 6,584 -1,625zm-602 1l337 -2 0 -67 -266 0 0 -625 -69 0 -2 694zm-505 -459c260,-49 329,362 71,404 -124,20 -218,-63 -234,-166 -18,-123 63,-219 163,-238zm-99 -37c-6,10 -164,97 -129,290 47,253 382,295 500,76 92,-172 -41,-310 -43,-320 -22,-9 -12,-6 -31,-23 -27,-24 -76,-44 -114,-50 -80,-13 -119,4 -183,27zm-372 277c-52,269 -447,192 -393,-81 19,-95 115,-184 237,-158 92,19 179,121 156,239zm-353 -263c-7,13 -66,48 -96,132 -66,182 73,388 294,358 201,-27 285,-264 180,-416 -18,-27 -31,-43 -54,-61 -19,-14 -53,-32 -65,-41 -53,-11 -77,-22 -139,-15 -60,7 -75,25 -120,43zm-613 64l11 -14c6,-5 8,-6 13,-9 34,-21 72,-29 115,-23 176,25 81,311 110,462l60 0c9,-25 7,-275 2,-328 -3,-30 -14,-63 -14,-89 -26,-25 -51,-110 -178,-108 -75,1 -146,47 -185,100l-1 -284 -66 0 0 708 61 1c27,-69 -27,-284 40,-385 11,-17 17,-23 32,-31zm-849 94c4,37 -7,78 0,117 47,274 432,267 516,102l-34 -27 -22 -6c-65,132 -390,128 -397,-114 -4,-160 157,-248 298,-200 63,22 69,48 104,74l50 -28c-33,-82 -166,-138 -291,-116 -180,31 -205,176 -224,198zm-442 -379c-24,20 -63,19 -93,85 -69,156 107,246 189,316 63,54 135,153 33,226 -94,67 -194,-20 -218,-89 -19,6 -49,24 -61,35 24,53 70,106 127,130 218,92 397,-191 170,-355 -37,-28 -73,-55 -109,-82 -182,-139 17,-306 146,-120 14,-5 47,-29 56,-43 -56,-96 -134,-120 -240,-103z"/>
  <path class="fil10" d="M13344 8348c15,58 119,48 105,-27 -12,-66 -124,-49 -105,27z"/>
  <path class="fil10" d="M12123 8370c20,3 39,36 78,6 27,-22 17,-51 13,-78 -23,-13 -50,-33 -81,-7 -24,20 -21,47 -10,79z"/>
  <path class="fil11" d="M5601 7826l61 -3c9,-15 24,-28 34,-42l103 -119c72,-91 210,-236 275,-320 22,-29 46,-53 69,-81l621 -718c9,270 0,556 0,828 0,70 -9,369 1,413 9,35 40,40 66,40 186,0 182,13 182,-128 0,-48 -6,-1606 3,-1657 -45,-32 -12,-32 -93,-32l-624 737c-48,56 -473,559 -486,564 0,-85 6,-1249 -4,-1270 -15,-32 -46,-31 -75,-31 -173,2 -163,-20 -163,155 0,518 6,1067 0,1584 -1,73 8,39 30,80z"/>
  <path class="fil11" d="M9690 6555c9,-19 19,-49 34,-63l243 521 -492 0 215 -458zm692 765c-19,-18 -30,-54 -42,-80 -138,-300 -294,-617 -425,-911 -26,-57 -52,-109 -78,-166 -83,-185 -54,-157 -158,-153 -74,147 -146,305 -216,455l-537 1135c-91,190 -91,150 -55,224l219 -1 271 -572 716 0 208 435c14,29 50,125 73,138l204 -1c11,-23 30,-36 22,-60 -20,-59 -200,-401 -202,-443z"/>
  <path class="fil11" d="M4187 6142c-1,32 -322,746 -364,846 -61,144 -125,280 -185,423 -13,30 -160,347 -155,372 3,11 20,34 32,41l199 0c22,-12 31,-52 41,-75l104 -239c18,-42 125,-298 137,-310l291 -674c12,13 275,621 288,668l207 477c7,17 55,148 74,153l207 0c37,-75 36,-26 -47,-221l-287 -663 -397 -933 -83 1c-6,17 -47,118 -62,134z"/>
  <path class="fil11" d="M7860 6246c41,-5 480,-1 561,-1 49,0 140,17 140,-50 0,-82 13,-147 -19,-176 -16,-14 -17,-12 -44,-12l-811 0c-31,0 -70,7 -70,45l0 1716c0,32 21,56 53,56 105,0 187,19 190,-55l0 -304c0,-394 -9,-836 0,-1219z"/>
  <polygon class="fil11" points="4528,3606 4368,3606 4368,4281 4148,4283 4146,3606 3989,3606 3989,4282 3773,4283 3771,3606 3611,3606 3613,4424 4526,4424 "/>
  <path class="fil11" d="M6235 4070c-62,344 -594,271 -526,-113 23,-133 153,-247 317,-213 131,27 239,160 209,326zm-134 358c35,-22 82,-24 151,-88 259,-239 92,-528 90,-544 -6,-5 -4,-3 -10,-10 -21,-25 -22,-34 -59,-73 -20,-21 -56,-51 -86,-69 -215,-129 -494,-41 -602,189 -80,171 -31,349 65,464 103,123 233,168 451,131z"/>
  <polygon class="fil11" points="8390,4065 8662,4067 8662,4424 8820,4424 8820,3606 8662,3606 8661,3914 8390,3913 8390,3606 8232,3606 8232,4424 8390,4424 "/>
  <path class="fil11" d="M10343 3759l-1 183c-87,1 -180,8 -182,-87 -3,-105 90,-97 183,-96zm-347 134c22,115 61,137 156,177l-182 353 172 1c30,-71 92,-186 130,-263 39,-79 22,-66 71,-66l0 327 156 2c0,-99 -6,-783 4,-816 -85,-11 -303,-5 -375,23 -97,36 -141,130 -132,262z"/>
  <path class="fil11" d="M9313 4103c10,-40 90,-246 109,-274l105 274 -214 0zm-50 -309c0,46 -210,529 -237,630l162 0 65 -168 326 -1c20,15 62,140 70,169l163 0c-16,-62 -60,-158 -84,-221 -15,-39 -80,-193 -80,-221 -16,-16 -33,-72 -41,-94 -12,-32 -24,-62 -37,-96 -12,-32 -58,-173 -79,-186l-149 1c-25,35 -55,163 -79,187z"/>
  <path class="fil11" d="M5388 4422c-5,-19 -195,-283 -231,-338 -23,-33 -58,-77 -76,-113l280 -365 -187 0c-14,22 -189,248 -219,276l0 -276 -161 2c10,36 2,713 3,814l158 2 0 -357 249 356 184 -1z"/>
  <path class="fil11" d="M6758 3832c0,37 -194,508 -222,590l165 2 227 -596c21,36 145,376 171,444 14,38 50,121 54,152l169 -2 -313 -816 -161 1c-10,36 -29,81 -43,116 -13,33 -24,86 -47,109z"/>
  <path class="fil11" d="M7657 4054c97,-1 196,10 200,110 4,117 -95,111 -200,110l0 -220zm118 368c98,-11 146,-37 190,-96 20,-26 35,-60 43,-101 10,-58 -5,-89 -4,-135 -45,-42 -21,-175 -347,-176l0 -308 -157 1 1 817 274 -2z"/>
  <path class="fil11" d="M10366 5238c-35,9 -162,6 -197,-2 -125,-28 -122,-198 7,-217 38,-5 154,-8 190,-2l0 221zm-396 -152c7,40 -2,73 12,116 33,98 122,135 230,141 -11,26 -48,67 -65,89 -24,30 -43,56 -65,85 -145,185 -162,178 -5,176l208 -271c32,-42 51,-82 81,-75 0,58 0,117 0,175 0,30 -8,146 10,163 18,18 80,7 93,1 7,-194 1,-464 1,-672 0,-105 12,-101 -85,-101 -154,0 -311,-23 -389,109 -6,11 -9,19 -13,31 -2,7 -2,10 -5,17 -7,18 1,3 -8,16z"/>
  <path class="fil11" d="M6472 4928c11,33 4,483 4,583 0,52 -13,145 10,179 27,6 31,-1 45,-16 103,-114 231,-277 334,-390 24,-26 40,-46 61,-71 19,-23 40,-47 60,-66l1 485c-1,89 25,51 97,63 16,-34 11,-44 11,-90l0 -597c0,-61 9,-94 -27,-94 -11,-1 -16,4 -29,20 -128,146 -345,418 -459,536 -6,-91 -1,-305 -1,-417 0,-33 13,-112 -9,-131 -15,-15 -64,-16 -91,1 -1,0 -3,3 -4,2 0,-1 -2,2 -3,3z"/>
  <path class="fil11" d="M8317 5689c9,1 3,-3 10,4 27,0 63,3 84,-5 18,-44 -2,-282 6,-357l351 -1c10,72 -11,316 7,356 20,11 72,10 93,2 9,-22 12,-736 2,-770 -23,-9 -75,-11 -91,2 -25,21 -1,226 -11,308l-351 0 -1 -231c0,-24 5,-60 -6,-77 -24,-15 -76,-10 -94,0 -10,30 -8,742 1,769z"/>
  <path class="fil11" d="M4930 5689c17,-44 0,-284 6,-359l352 2c4,56 1,122 1,179 0,32 -9,156 11,174 16,15 67,10 87,4 13,-31 6,-483 6,-581 0,-32 9,-168 -9,-186 -16,-16 -73,-14 -86,-1 -18,18 -8,275 -10,307l-352 -2c-4,-51 14,-282 -10,-304 -12,-14 -19,-10 -42,-10 -65,0 -52,17 -52,102l0 585c0,26 -9,72 10,86 14,15 69,9 88,4z"/>
  <path class="fil11" d="M5649 4927c12,42 3,319 3,385 0,118 -5,267 2,373 23,10 73,12 97,4 18,-43 0,-284 7,-358l350 -1c6,39 2,213 2,275 0,50 -9,81 27,87 5,1 21,1 27,1 21,0 29,1 45,-5 10,-25 12,-736 1,-770 -21,-8 -76,-10 -90,2 -26,22 0,226 -12,308l-350 0c-5,-52 14,-284 -10,-306 -19,-19 -71,-12 -99,5z"/>
  <path class="fil11" d="M7626 4906c-3,2 -57,20 -71,26 -321,149 -293,584 -37,725 168,94 314,38 354,43l64 -28c43,-21 152,-92 144,-128 -10,-18 -56,-52 -73,-60 -69,84 -196,166 -367,112 -283,-88 -281,-499 5,-585 70,-21 155,-17 219,8 86,33 99,67 143,110 16,-7 69,-45 81,-60 -24,-52 -106,-116 -175,-143 -100,-40 -176,-37 -287,-20z"/>
  <path class="fil11" d="M4620 5010c8,-21 8,-70 1,-92 -33,-13 -360,-5 -422,-5 -20,0 -34,2 -34,24 0,119 -10,680 5,752 36,12 172,4 223,4 25,0 200,8 218,-8 8,-7 37,-95 -25,-95l-317 0 2 -266c64,0 129,0 193,0 100,0 157,16 157,-34 0,-79 -1,-69 -68,-68 -56,0 -255,3 -284,-2l0 -202c71,-18 297,13 351,-8z"/>
  <path class="fil11" d="M9447 5128l104 215 -208 1 96 -206c1,-1 2,-2 3,-3l5 -7zm-150 53c-2,25 -97,213 -115,252 -127,277 -158,264 -6,259l117 -246 304 0 120 246c118,9 113,-3 73,-83 -40,-80 -236,-500 -236,-517l-15 -21c-17,-33 -64,-153 -81,-158 -38,-12 -47,37 -60,63 -11,24 -21,44 -32,68 -8,18 -54,123 -69,137z"/>
  <path class="fil11" d="M3714 5687c20,11 63,7 86,4 17,-26 11,-35 11,-75 0,-136 -6,-520 2,-601 42,0 130,7 161,-6 8,-21 8,-69 1,-91 -26,-10 -410,-10 -433,1 -7,22 -7,69 0,90 33,15 118,6 162,6 10,92 -15,642 10,672z"/>
 </g>
</svg>
